<svg xmlns="http://www.w3.org/2000/svg" xmlns:xlink="http://www.w3.org/1999/xlink" width="179" zoomAndPan="magnify" viewBox="0 0 134.25 44.999999" height="60" preserveAspectRatio="xMidYMid meet" version="1.0"><defs><g/><clipPath id="5eded93f5e"><path d="M 0 23 L 27.597656 23 L 27.597656 33.128906 L 0 33.128906 Z M 0 23 " clip-rule="nonzero"/></clipPath><clipPath id="382fd47c51"><path d="M 0 18 L 27.597656 18 L 27.597656 29 L 0 29 Z M 0 18 " clip-rule="nonzero"/></clipPath><clipPath id="2d33144df0"><path d="M 26.683594 24.570312 L 15.703125 27.867188 C 14.519531 28.222656 13.261719 28.222656 12.082031 27.867188 L 1.101562 24.570312 C 0.00390625 24.238281 0.00390625 22.683594 1.101562 22.351562 L 12.082031 19.050781 C 13.261719 18.699219 14.519531 18.699219 15.703125 19.050781 L 26.683594 22.351562 C 27.78125 22.683594 27.78125 24.238281 26.683594 24.570312 Z M 26.683594 24.570312 " clip-rule="nonzero"/></clipPath><linearGradient x1="-5.01951" gradientTransform="matrix(0.0547423, 0, 0, 0.0547423, 0.276739, 13.823196)" y1="176.047" x2="499.049201" gradientUnits="userSpaceOnUse" y2="176.047" id="20b62e28f2"><stop stop-opacity="1" stop-color="rgb(9.408569%, 0%, 67.83905%)" offset="0"/><stop stop-opacity="1" stop-color="rgb(9.408569%, 0%, 67.83905%)" offset="0.0078125"/><stop stop-opacity="1" stop-color="rgb(9.667969%, 0.195312%, 67.904663%)" offset="0.0117188"/><stop stop-opacity="1" stop-color="rgb(9.928894%, 0.390625%, 67.970276%)" offset="0.015625"/><stop stop-opacity="1" stop-color="rgb(10.287476%, 0.660706%, 68.060303%)" offset="0.0195313"/><stop stop-opacity="1" stop-color="rgb(10.646057%, 0.930786%, 68.15033%)" offset="0.0234375"/><stop stop-opacity="1" stop-color="rgb(11.004639%, 1.200867%, 68.240356%)" offset="0.0273438"/><stop stop-opacity="1" stop-color="rgb(11.36322%, 1.470947%, 68.330383%)" offset="0.03125"/><stop stop-opacity="1" stop-color="rgb(11.721802%, 1.741028%, 68.42041%)" offset="0.0351562"/><stop stop-opacity="1" stop-color="rgb(12.080383%, 2.012634%, 68.510437%)" offset="0.0390625"/><stop stop-opacity="1" stop-color="rgb(12.438965%, 2.282715%, 68.600464%)" offset="0.0429688"/><stop stop-opacity="1" stop-color="rgb(12.799072%, 2.552795%, 68.690491%)" offset="0.046875"/><stop stop-opacity="1" stop-color="rgb(13.157654%, 2.822876%, 68.780518%)" offset="0.0507812"/><stop stop-opacity="1" stop-color="rgb(13.516235%, 3.092957%, 68.870544%)" offset="0.0546875"/><stop stop-opacity="1" stop-color="rgb(13.874817%, 3.363037%, 68.960571%)" offset="0.0585938"/><stop stop-opacity="1" stop-color="rgb(14.233398%, 3.633118%, 69.050598%)" offset="0.0625"/><stop stop-opacity="1" stop-color="rgb(14.59198%, 3.903198%, 69.140625%)" offset="0.0664062"/><stop stop-opacity="1" stop-color="rgb(14.950562%, 4.173279%, 69.230652%)" offset="0.0703125"/><stop stop-opacity="1" stop-color="rgb(15.309143%, 4.443359%, 69.320679%)" offset="0.0742188"/><stop stop-opacity="1" stop-color="rgb(15.667725%, 4.71344%, 69.410706%)" offset="0.078125"/><stop stop-opacity="1" stop-color="rgb(16.026306%, 4.983521%, 69.500732%)" offset="0.0820313"/><stop stop-opacity="1" stop-color="rgb(16.384888%, 5.253601%, 69.590759%)" offset="0.0859375"/><stop stop-opacity="1" stop-color="rgb(16.743469%, 5.523682%, 69.680786%)" offset="0.0898438"/><stop stop-opacity="1" stop-color="rgb(17.102051%, 5.793762%, 69.770813%)" offset="0.09375"/><stop stop-opacity="1" stop-color="rgb(17.460632%, 6.063843%, 69.86084%)" offset="0.0976563"/><stop stop-opacity="1" stop-color="rgb(17.819214%, 6.333923%, 69.950867%)" offset="0.101563"/><stop stop-opacity="1" stop-color="rgb(18.177795%, 6.604004%, 70.040894%)" offset="0.105469"/><stop stop-opacity="1" stop-color="rgb(18.536377%, 6.874084%, 70.13092%)" offset="0.109375"/><stop stop-opacity="1" stop-color="rgb(18.894958%, 7.144165%, 70.220947%)" offset="0.113281"/><stop stop-opacity="1" stop-color="rgb(19.25354%, 7.414246%, 70.310974%)" offset="0.117188"/><stop stop-opacity="1" stop-color="rgb(19.612122%, 7.684326%, 70.401001%)" offset="0.121094"/><stop stop-opacity="1" stop-color="rgb(19.970703%, 7.954407%, 70.491028%)" offset="0.125"/><stop stop-opacity="1" stop-color="rgb(20.329285%, 8.224487%, 70.581055%)" offset="0.128906"/><stop stop-opacity="1" stop-color="rgb(20.687866%, 8.494568%, 70.671082%)" offset="0.132813"/><stop stop-opacity="1" stop-color="rgb(21.046448%, 8.764648%, 70.761108%)" offset="0.136719"/><stop stop-opacity="1" stop-color="rgb(21.405029%, 9.034729%, 70.851135%)" offset="0.140625"/><stop stop-opacity="1" stop-color="rgb(21.763611%, 9.30481%, 70.941162%)" offset="0.144531"/><stop stop-opacity="1" stop-color="rgb(22.122192%, 9.57489%, 71.031189%)" offset="0.148438"/><stop stop-opacity="1" stop-color="rgb(22.480774%, 9.844971%, 71.121216%)" offset="0.152344"/><stop stop-opacity="1" stop-color="rgb(22.839355%, 10.116577%, 71.211243%)" offset="0.15625"/><stop stop-opacity="1" stop-color="rgb(23.197937%, 10.386658%, 71.30127%)" offset="0.160156"/><stop stop-opacity="1" stop-color="rgb(23.556519%, 10.656738%, 71.391296%)" offset="0.164063"/><stop stop-opacity="1" stop-color="rgb(23.9151%, 10.926819%, 71.481323%)" offset="0.167969"/><stop stop-opacity="1" stop-color="rgb(24.273682%, 11.196899%, 71.572876%)" offset="0.171875"/><stop stop-opacity="1" stop-color="rgb(24.632263%, 11.46698%, 71.662903%)" offset="0.175781"/><stop stop-opacity="1" stop-color="rgb(24.990845%, 11.737061%, 71.75293%)" offset="0.179688"/><stop stop-opacity="1" stop-color="rgb(25.349426%, 12.007141%, 71.842957%)" offset="0.183594"/><stop stop-opacity="1" stop-color="rgb(25.708008%, 12.277222%, 71.932983%)" offset="0.1875"/><stop stop-opacity="1" stop-color="rgb(26.066589%, 12.547302%, 72.02301%)" offset="0.191406"/><stop stop-opacity="1" stop-color="rgb(26.425171%, 12.817383%, 72.113037%)" offset="0.195313"/><stop stop-opacity="1" stop-color="rgb(26.783752%, 13.087463%, 72.203064%)" offset="0.199219"/><stop stop-opacity="1" stop-color="rgb(27.142334%, 13.357544%, 72.293091%)" offset="0.203125"/><stop stop-opacity="1" stop-color="rgb(27.500916%, 13.627625%, 72.383118%)" offset="0.207031"/><stop stop-opacity="1" stop-color="rgb(27.859497%, 13.897705%, 72.473145%)" offset="0.210938"/><stop stop-opacity="1" stop-color="rgb(28.218079%, 14.167786%, 72.563171%)" offset="0.214844"/><stop stop-opacity="1" stop-color="rgb(28.57666%, 14.437866%, 72.653198%)" offset="0.21875"/><stop stop-opacity="1" stop-color="rgb(28.935242%, 14.707947%, 72.743225%)" offset="0.222656"/><stop stop-opacity="1" stop-color="rgb(29.293823%, 14.978027%, 72.833252%)" offset="0.226563"/><stop stop-opacity="1" stop-color="rgb(29.652405%, 15.248108%, 72.923279%)" offset="0.230469"/><stop stop-opacity="1" stop-color="rgb(30.010986%, 15.518188%, 73.013306%)" offset="0.234375"/><stop stop-opacity="1" stop-color="rgb(30.369568%, 15.788269%, 73.103333%)" offset="0.238281"/><stop stop-opacity="1" stop-color="rgb(30.728149%, 16.05835%, 73.193359%)" offset="0.242188"/><stop stop-opacity="1" stop-color="rgb(31.086731%, 16.32843%, 73.283386%)" offset="0.246094"/><stop stop-opacity="1" stop-color="rgb(31.445312%, 16.598511%, 73.373413%)" offset="0.25"/><stop stop-opacity="1" stop-color="rgb(31.803894%, 16.868591%, 73.46344%)" offset="0.253906"/><stop stop-opacity="1" stop-color="rgb(32.162476%, 17.138672%, 73.553467%)" offset="0.257813"/><stop stop-opacity="1" stop-color="rgb(32.521057%, 17.408752%, 73.643494%)" offset="0.261719"/><stop stop-opacity="1" stop-color="rgb(32.879639%, 17.678833%, 73.733521%)" offset="0.265625"/><stop stop-opacity="1" stop-color="rgb(33.23822%, 17.948914%, 73.823547%)" offset="0.269531"/><stop stop-opacity="1" stop-color="rgb(33.596802%, 18.22052%, 73.913574%)" offset="0.273438"/><stop stop-opacity="1" stop-color="rgb(33.955383%, 18.490601%, 74.003601%)" offset="0.277344"/><stop stop-opacity="1" stop-color="rgb(34.313965%, 18.760681%, 74.093628%)" offset="0.28125"/><stop stop-opacity="1" stop-color="rgb(34.672546%, 19.030762%, 74.183655%)" offset="0.285156"/><stop stop-opacity="1" stop-color="rgb(35.031128%, 19.300842%, 74.273682%)" offset="0.289062"/><stop stop-opacity="1" stop-color="rgb(35.389709%, 19.570923%, 74.363708%)" offset="0.292969"/><stop stop-opacity="1" stop-color="rgb(35.748291%, 19.841003%, 74.453735%)" offset="0.296875"/><stop stop-opacity="1" stop-color="rgb(36.106873%, 20.111084%, 74.543762%)" offset="0.300781"/><stop stop-opacity="1" stop-color="rgb(36.465454%, 20.381165%, 74.633789%)" offset="0.304688"/><stop stop-opacity="1" stop-color="rgb(36.824036%, 20.651245%, 74.723816%)" offset="0.308594"/><stop stop-opacity="1" stop-color="rgb(37.184143%, 20.921326%, 74.813843%)" offset="0.3125"/><stop stop-opacity="1" stop-color="rgb(37.542725%, 21.191406%, 74.90387%)" offset="0.316406"/><stop stop-opacity="1" stop-color="rgb(37.901306%, 21.461487%, 74.993896%)" offset="0.320313"/><stop stop-opacity="1" stop-color="rgb(38.259888%, 21.731567%, 75.083923%)" offset="0.324219"/><stop stop-opacity="1" stop-color="rgb(38.618469%, 22.001648%, 75.17395%)" offset="0.328125"/><stop stop-opacity="1" stop-color="rgb(38.977051%, 22.271729%, 75.263977%)" offset="0.332031"/><stop stop-opacity="1" stop-color="rgb(39.335632%, 22.541809%, 75.354004%)" offset="0.335938"/><stop stop-opacity="1" stop-color="rgb(39.694214%, 22.81189%, 75.444031%)" offset="0.339844"/><stop stop-opacity="1" stop-color="rgb(40.052795%, 23.08197%, 75.534058%)" offset="0.34375"/><stop stop-opacity="1" stop-color="rgb(40.411377%, 23.352051%, 75.624084%)" offset="0.347656"/><stop stop-opacity="1" stop-color="rgb(40.769958%, 23.622131%, 75.714111%)" offset="0.351563"/><stop stop-opacity="1" stop-color="rgb(41.12854%, 23.892212%, 75.804138%)" offset="0.355469"/><stop stop-opacity="1" stop-color="rgb(41.487122%, 24.162292%, 75.894165%)" offset="0.359375"/><stop stop-opacity="1" stop-color="rgb(41.845703%, 24.432373%, 75.984192%)" offset="0.363281"/><stop stop-opacity="1" stop-color="rgb(42.204285%, 24.702454%, 76.075745%)" offset="0.367188"/><stop stop-opacity="1" stop-color="rgb(42.562866%, 24.972534%, 76.165771%)" offset="0.371094"/><stop stop-opacity="1" stop-color="rgb(42.921448%, 25.242615%, 76.255798%)" offset="0.375"/><stop stop-opacity="1" stop-color="rgb(43.280029%, 25.512695%, 76.345825%)" offset="0.378906"/><stop stop-opacity="1" stop-color="rgb(43.638611%, 25.782776%, 76.435852%)" offset="0.382813"/><stop stop-opacity="1" stop-color="rgb(43.997192%, 26.052856%, 76.525879%)" offset="0.386719"/><stop stop-opacity="1" stop-color="rgb(44.355774%, 26.322937%, 76.615906%)" offset="0.390625"/><stop stop-opacity="1" stop-color="rgb(44.714355%, 26.593018%, 76.705933%)" offset="0.394531"/><stop stop-opacity="1" stop-color="rgb(45.072937%, 26.864624%, 76.795959%)" offset="0.398438"/><stop stop-opacity="1" stop-color="rgb(45.431519%, 27.134705%, 76.885986%)" offset="0.402344"/><stop stop-opacity="1" stop-color="rgb(45.7901%, 27.404785%, 76.976013%)" offset="0.40625"/><stop stop-opacity="1" stop-color="rgb(46.148682%, 27.674866%, 77.06604%)" offset="0.410156"/><stop stop-opacity="1" stop-color="rgb(46.507263%, 27.944946%, 77.156067%)" offset="0.414062"/><stop stop-opacity="1" stop-color="rgb(46.865845%, 28.215027%, 77.246094%)" offset="0.417969"/><stop stop-opacity="1" stop-color="rgb(47.224426%, 28.485107%, 77.336121%)" offset="0.421875"/><stop stop-opacity="1" stop-color="rgb(47.583008%, 28.755188%, 77.426147%)" offset="0.425781"/><stop stop-opacity="1" stop-color="rgb(47.941589%, 29.025269%, 77.516174%)" offset="0.429688"/><stop stop-opacity="1" stop-color="rgb(48.300171%, 29.295349%, 77.606201%)" offset="0.433594"/><stop stop-opacity="1" stop-color="rgb(48.658752%, 29.56543%, 77.696228%)" offset="0.4375"/><stop stop-opacity="1" stop-color="rgb(49.017334%, 29.83551%, 77.786255%)" offset="0.441406"/><stop stop-opacity="1" stop-color="rgb(49.375916%, 30.105591%, 77.876282%)" offset="0.445313"/><stop stop-opacity="1" stop-color="rgb(49.734497%, 30.375671%, 77.966309%)" offset="0.449219"/><stop stop-opacity="1" stop-color="rgb(50.093079%, 30.645752%, 78.056335%)" offset="0.453125"/><stop stop-opacity="1" stop-color="rgb(50.45166%, 30.915833%, 78.146362%)" offset="0.457031"/><stop stop-opacity="1" stop-color="rgb(50.810242%, 31.185913%, 78.236389%)" offset="0.460938"/><stop stop-opacity="1" stop-color="rgb(51.168823%, 31.455994%, 78.326416%)" offset="0.464844"/><stop stop-opacity="1" stop-color="rgb(51.527405%, 31.726074%, 78.416443%)" offset="0.46875"/><stop stop-opacity="1" stop-color="rgb(51.885986%, 31.996155%, 78.50647%)" offset="0.472656"/><stop stop-opacity="1" stop-color="rgb(52.244568%, 32.266235%, 78.596497%)" offset="0.476563"/><stop stop-opacity="1" stop-color="rgb(52.603149%, 32.536316%, 78.686523%)" offset="0.480469"/><stop stop-opacity="1" stop-color="rgb(52.961731%, 32.806396%, 78.77655%)" offset="0.484375"/><stop stop-opacity="1" stop-color="rgb(53.320312%, 33.076477%, 78.866577%)" offset="0.488281"/><stop stop-opacity="1" stop-color="rgb(53.678894%, 33.346558%, 78.956604%)" offset="0.492188"/><stop stop-opacity="1" stop-color="rgb(54.037476%, 33.616638%, 79.046631%)" offset="0.496094"/><stop stop-opacity="1" stop-color="rgb(54.396057%, 33.886719%, 79.136658%)" offset="0.5"/><stop stop-opacity="1" stop-color="rgb(54.754639%, 34.156799%, 79.226685%)" offset="0.503906"/><stop stop-opacity="1" stop-color="rgb(55.11322%, 34.42688%, 79.316711%)" offset="0.507812"/><stop stop-opacity="1" stop-color="rgb(55.471802%, 34.69696%, 79.406738%)" offset="0.511719"/><stop stop-opacity="1" stop-color="rgb(55.830383%, 34.968567%, 79.496765%)" offset="0.515625"/><stop stop-opacity="1" stop-color="rgb(56.188965%, 35.238647%, 79.586792%)" offset="0.519531"/><stop stop-opacity="1" stop-color="rgb(56.547546%, 35.508728%, 79.676819%)" offset="0.523438"/><stop stop-opacity="1" stop-color="rgb(56.906128%, 35.778809%, 79.766846%)" offset="0.527344"/><stop stop-opacity="1" stop-color="rgb(57.264709%, 36.048889%, 79.856873%)" offset="0.53125"/><stop stop-opacity="1" stop-color="rgb(57.623291%, 36.31897%, 79.946899%)" offset="0.535156"/><stop stop-opacity="1" stop-color="rgb(57.981873%, 36.58905%, 80.036926%)" offset="0.539062"/><stop stop-opacity="1" stop-color="rgb(58.340454%, 36.859131%, 80.126953%)" offset="0.542969"/><stop stop-opacity="1" stop-color="rgb(58.699036%, 37.129211%, 80.21698%)" offset="0.546875"/><stop stop-opacity="1" stop-color="rgb(59.057617%, 37.399292%, 80.307007%)" offset="0.550781"/><stop stop-opacity="1" stop-color="rgb(59.416199%, 37.669373%, 80.397034%)" offset="0.554688"/><stop stop-opacity="1" stop-color="rgb(59.77478%, 37.939453%, 80.487061%)" offset="0.558594"/><stop stop-opacity="1" stop-color="rgb(60.133362%, 38.209534%, 80.577087%)" offset="0.5625"/><stop stop-opacity="1" stop-color="rgb(60.491943%, 38.479614%, 80.667114%)" offset="0.566406"/><stop stop-opacity="1" stop-color="rgb(60.852051%, 38.749695%, 80.758667%)" offset="0.570312"/><stop stop-opacity="1" stop-color="rgb(61.210632%, 39.019775%, 80.848694%)" offset="0.574219"/><stop stop-opacity="1" stop-color="rgb(61.569214%, 39.289856%, 80.938721%)" offset="0.578125"/><stop stop-opacity="1" stop-color="rgb(61.927795%, 39.559937%, 81.028748%)" offset="0.582031"/><stop stop-opacity="1" stop-color="rgb(62.286377%, 39.830017%, 81.118774%)" offset="0.585937"/><stop stop-opacity="1" stop-color="rgb(62.644958%, 40.100098%, 81.208801%)" offset="0.589844"/><stop stop-opacity="1" stop-color="rgb(63.00354%, 40.370178%, 81.298828%)" offset="0.59375"/><stop stop-opacity="1" stop-color="rgb(63.362122%, 40.640259%, 81.388855%)" offset="0.597656"/><stop stop-opacity="1" stop-color="rgb(63.720703%, 40.910339%, 81.478882%)" offset="0.601562"/><stop stop-opacity="1" stop-color="rgb(64.079285%, 41.18042%, 81.568909%)" offset="0.605469"/><stop stop-opacity="1" stop-color="rgb(64.437866%, 41.4505%, 81.658936%)" offset="0.609375"/><stop stop-opacity="1" stop-color="rgb(64.796448%, 41.720581%, 81.748962%)" offset="0.613281"/><stop stop-opacity="1" stop-color="rgb(65.155029%, 41.990662%, 81.838989%)" offset="0.617188"/><stop stop-opacity="1" stop-color="rgb(65.513611%, 42.260742%, 81.929016%)" offset="0.621094"/><stop stop-opacity="1" stop-color="rgb(65.872192%, 42.530823%, 82.019043%)" offset="0.625"/><stop stop-opacity="1" stop-color="rgb(66.230774%, 42.800903%, 82.10907%)" offset="0.628906"/><stop stop-opacity="1" stop-color="rgb(66.589355%, 43.07251%, 82.199097%)" offset="0.632812"/><stop stop-opacity="1" stop-color="rgb(66.947937%, 43.34259%, 82.289124%)" offset="0.636719"/><stop stop-opacity="1" stop-color="rgb(67.306519%, 43.612671%, 82.37915%)" offset="0.640625"/><stop stop-opacity="1" stop-color="rgb(67.6651%, 43.882751%, 82.469177%)" offset="0.644531"/><stop stop-opacity="1" stop-color="rgb(68.023682%, 44.152832%, 82.559204%)" offset="0.648438"/><stop stop-opacity="1" stop-color="rgb(68.382263%, 44.422913%, 82.649231%)" offset="0.652344"/><stop stop-opacity="1" stop-color="rgb(68.740845%, 44.692993%, 82.739258%)" offset="0.65625"/><stop stop-opacity="1" stop-color="rgb(69.099426%, 44.963074%, 82.829285%)" offset="0.660156"/><stop stop-opacity="1" stop-color="rgb(69.458008%, 45.233154%, 82.919312%)" offset="0.664063"/><stop stop-opacity="1" stop-color="rgb(69.816589%, 45.503235%, 83.009338%)" offset="0.667969"/><stop stop-opacity="1" stop-color="rgb(70.175171%, 45.773315%, 83.099365%)" offset="0.671875"/><stop stop-opacity="1" stop-color="rgb(70.533752%, 46.043396%, 83.189392%)" offset="0.675781"/><stop stop-opacity="1" stop-color="rgb(70.892334%, 46.313477%, 83.279419%)" offset="0.679688"/><stop stop-opacity="1" stop-color="rgb(71.250916%, 46.583557%, 83.369446%)" offset="0.683594"/><stop stop-opacity="1" stop-color="rgb(71.609497%, 46.853638%, 83.459473%)" offset="0.6875"/><stop stop-opacity="1" stop-color="rgb(71.968079%, 47.123718%, 83.5495%)" offset="0.691406"/><stop stop-opacity="1" stop-color="rgb(72.32666%, 47.393799%, 83.639526%)" offset="0.695312"/><stop stop-opacity="1" stop-color="rgb(72.685242%, 47.663879%, 83.729553%)" offset="0.699219"/><stop stop-opacity="1" stop-color="rgb(73.043823%, 47.93396%, 83.81958%)" offset="0.703125"/><stop stop-opacity="1" stop-color="rgb(73.402405%, 48.204041%, 83.909607%)" offset="0.707031"/><stop stop-opacity="1" stop-color="rgb(73.760986%, 48.474121%, 83.999634%)" offset="0.710938"/><stop stop-opacity="1" stop-color="rgb(74.119568%, 48.744202%, 84.089661%)" offset="0.714844"/><stop stop-opacity="1" stop-color="rgb(74.478149%, 49.014282%, 84.179688%)" offset="0.71875"/><stop stop-opacity="1" stop-color="rgb(74.836731%, 49.284363%, 84.269714%)" offset="0.722656"/><stop stop-opacity="1" stop-color="rgb(75.195312%, 49.554443%, 84.359741%)" offset="0.726562"/><stop stop-opacity="1" stop-color="rgb(75.553894%, 49.824524%, 84.449768%)" offset="0.730469"/><stop stop-opacity="1" stop-color="rgb(75.912476%, 50.094604%, 84.539795%)" offset="0.734375"/><stop stop-opacity="1" stop-color="rgb(76.271057%, 50.364685%, 84.629822%)" offset="0.738281"/><stop stop-opacity="1" stop-color="rgb(76.629639%, 50.634766%, 84.719849%)" offset="0.742188"/><stop stop-opacity="1" stop-color="rgb(76.98822%, 50.904846%, 84.809875%)" offset="0.746094"/><stop stop-opacity="1" stop-color="rgb(77.346802%, 51.176453%, 84.899902%)" offset="0.75"/><stop stop-opacity="1" stop-color="rgb(77.705383%, 51.446533%, 84.989929%)" offset="0.753906"/><stop stop-opacity="1" stop-color="rgb(78.063965%, 51.716614%, 85.079956%)" offset="0.757812"/><stop stop-opacity="1" stop-color="rgb(78.422546%, 51.986694%, 85.169983%)" offset="0.761719"/><stop stop-opacity="1" stop-color="rgb(78.781128%, 52.256775%, 85.261536%)" offset="0.765625"/><stop stop-opacity="1" stop-color="rgb(79.139709%, 52.526855%, 85.351562%)" offset="0.769531"/><stop stop-opacity="1" stop-color="rgb(79.498291%, 52.796936%, 85.441589%)" offset="0.773438"/><stop stop-opacity="1" stop-color="rgb(79.856873%, 53.067017%, 85.531616%)" offset="0.777344"/><stop stop-opacity="1" stop-color="rgb(80.215454%, 53.337097%, 85.621643%)" offset="0.78125"/><stop stop-opacity="1" stop-color="rgb(80.574036%, 53.607178%, 85.71167%)" offset="0.785156"/><stop stop-opacity="1" stop-color="rgb(80.932617%, 53.877258%, 85.801697%)" offset="0.789062"/><stop stop-opacity="1" stop-color="rgb(81.291199%, 54.147339%, 85.891724%)" offset="0.792969"/><stop stop-opacity="1" stop-color="rgb(81.64978%, 54.417419%, 85.98175%)" offset="0.796875"/><stop stop-opacity="1" stop-color="rgb(82.008362%, 54.6875%, 86.071777%)" offset="0.800781"/><stop stop-opacity="1" stop-color="rgb(82.366943%, 54.957581%, 86.161804%)" offset="0.804688"/><stop stop-opacity="1" stop-color="rgb(82.725525%, 55.227661%, 86.251831%)" offset="0.808594"/><stop stop-opacity="1" stop-color="rgb(83.084106%, 55.497742%, 86.341858%)" offset="0.8125"/><stop stop-opacity="1" stop-color="rgb(83.442688%, 55.767822%, 86.431885%)" offset="0.816406"/><stop stop-opacity="1" stop-color="rgb(83.80127%, 56.037903%, 86.521912%)" offset="0.820312"/><stop stop-opacity="1" stop-color="rgb(84.159851%, 56.307983%, 86.611938%)" offset="0.824219"/><stop stop-opacity="1" stop-color="rgb(84.518433%, 56.578064%, 86.701965%)" offset="0.828125"/><stop stop-opacity="1" stop-color="rgb(84.877014%, 56.848145%, 86.791992%)" offset="0.832031"/><stop stop-opacity="1" stop-color="rgb(85.237122%, 57.118225%, 86.882019%)" offset="0.835937"/><stop stop-opacity="1" stop-color="rgb(85.595703%, 57.388306%, 86.972046%)" offset="0.839844"/><stop stop-opacity="1" stop-color="rgb(85.954285%, 57.658386%, 87.062073%)" offset="0.84375"/><stop stop-opacity="1" stop-color="rgb(86.312866%, 57.928467%, 87.1521%)" offset="0.847656"/><stop stop-opacity="1" stop-color="rgb(86.671448%, 58.198547%, 87.242126%)" offset="0.851562"/><stop stop-opacity="1" stop-color="rgb(87.030029%, 58.468628%, 87.332153%)" offset="0.855469"/><stop stop-opacity="1" stop-color="rgb(87.388611%, 58.738708%, 87.42218%)" offset="0.859375"/><stop stop-opacity="1" stop-color="rgb(87.747192%, 59.008789%, 87.512207%)" offset="0.863281"/><stop stop-opacity="1" stop-color="rgb(88.105774%, 59.280396%, 87.602234%)" offset="0.867188"/><stop stop-opacity="1" stop-color="rgb(88.464355%, 59.550476%, 87.692261%)" offset="0.871094"/><stop stop-opacity="1" stop-color="rgb(88.822937%, 59.820557%, 87.782288%)" offset="0.875"/><stop stop-opacity="1" stop-color="rgb(89.181519%, 60.090637%, 87.872314%)" offset="0.878906"/><stop stop-opacity="1" stop-color="rgb(89.5401%, 60.360718%, 87.962341%)" offset="0.882812"/><stop stop-opacity="1" stop-color="rgb(89.898682%, 60.630798%, 88.052368%)" offset="0.886719"/><stop stop-opacity="1" stop-color="rgb(90.257263%, 60.900879%, 88.142395%)" offset="0.890625"/><stop stop-opacity="1" stop-color="rgb(90.615845%, 61.170959%, 88.232422%)" offset="0.894531"/><stop stop-opacity="1" stop-color="rgb(90.974426%, 61.44104%, 88.322449%)" offset="0.898438"/><stop stop-opacity="1" stop-color="rgb(91.333008%, 61.711121%, 88.412476%)" offset="0.902344"/><stop stop-opacity="1" stop-color="rgb(91.691589%, 61.981201%, 88.502502%)" offset="0.90625"/><stop stop-opacity="1" stop-color="rgb(92.050171%, 62.251282%, 88.592529%)" offset="0.910156"/><stop stop-opacity="1" stop-color="rgb(92.408752%, 62.521362%, 88.682556%)" offset="0.914063"/><stop stop-opacity="1" stop-color="rgb(92.767334%, 62.791443%, 88.772583%)" offset="0.917969"/><stop stop-opacity="1" stop-color="rgb(93.125916%, 63.061523%, 88.86261%)" offset="0.921875"/><stop stop-opacity="1" stop-color="rgb(93.484497%, 63.331604%, 88.952637%)" offset="0.925781"/><stop stop-opacity="1" stop-color="rgb(93.843079%, 63.601685%, 89.042664%)" offset="0.929688"/><stop stop-opacity="1" stop-color="rgb(94.20166%, 63.871765%, 89.13269%)" offset="0.933594"/><stop stop-opacity="1" stop-color="rgb(94.560242%, 64.141846%, 89.222717%)" offset="0.9375"/><stop stop-opacity="1" stop-color="rgb(94.918823%, 64.411926%, 89.312744%)" offset="0.941406"/><stop stop-opacity="1" stop-color="rgb(95.277405%, 64.682007%, 89.402771%)" offset="0.945312"/><stop stop-opacity="1" stop-color="rgb(95.635986%, 64.952087%, 89.492798%)" offset="0.949219"/><stop stop-opacity="1" stop-color="rgb(95.994568%, 65.222168%, 89.582825%)" offset="0.953125"/><stop stop-opacity="1" stop-color="rgb(96.353149%, 65.492249%, 89.672852%)" offset="0.957031"/><stop stop-opacity="1" stop-color="rgb(96.711731%, 65.762329%, 89.762878%)" offset="0.960938"/><stop stop-opacity="1" stop-color="rgb(97.070312%, 66.03241%, 89.852905%)" offset="0.964844"/><stop stop-opacity="1" stop-color="rgb(97.428894%, 66.30249%, 89.944458%)" offset="0.96875"/><stop stop-opacity="1" stop-color="rgb(97.787476%, 66.572571%, 90.034485%)" offset="0.972656"/><stop stop-opacity="1" stop-color="rgb(98.146057%, 66.842651%, 90.124512%)" offset="0.976562"/><stop stop-opacity="1" stop-color="rgb(98.504639%, 67.112732%, 90.214539%)" offset="0.980469"/><stop stop-opacity="1" stop-color="rgb(98.86322%, 67.384338%, 90.304565%)" offset="0.984375"/><stop stop-opacity="1" stop-color="rgb(99.221802%, 67.654419%, 90.394592%)" offset="0.988281"/><stop stop-opacity="1" stop-color="rgb(99.580383%, 67.9245%, 90.484619%)" offset="0.992188"/><stop stop-opacity="1" stop-color="rgb(99.789429%, 68.081665%, 90.536499%)" offset="0.996094"/><stop stop-opacity="1" stop-color="rgb(100%, 68.238831%, 90.589905%)" offset="1"/></linearGradient><clipPath id="e6869520b2"><path d="M 0 13.734375 L 27.597656 13.734375 L 27.597656 24 L 0 24 Z M 0 13.734375 " clip-rule="nonzero"/></clipPath></defs><g clip-path="url(#5eded93f5e)"><path fill="#ffaee7" d="M 26.683594 29.53125 L 15.703125 32.832031 C 14.519531 33.1875 13.261719 33.1875 12.082031 32.832031 L 1.101562 29.53125 C 0.00390625 29.203125 0.00390625 27.644531 1.101562 27.316406 L 12.082031 24.015625 C 13.261719 23.660156 14.519531 23.660156 15.703125 24.015625 L 26.683594 27.316406 C 27.78125 27.644531 27.78125 29.203125 26.683594 29.53125 Z M 26.683594 29.53125 " fill-opacity="1" fill-rule="nonzero"/></g><g clip-path="url(#382fd47c51)"><g clip-path="url(#2d33144df0)"><path fill="url(#20b62e28f2)" d="M 0.00390625 18.699219 L 0.00390625 28.222656 L 27.597656 28.222656 L 27.597656 18.699219 Z M 0.00390625 18.699219 " fill-rule="nonzero"/></g></g><g clip-path="url(#e6869520b2)"><path fill="#6f2fef" d="M 26.683594 19.605469 L 15.703125 22.90625 C 14.519531 23.261719 13.261719 23.261719 12.082031 22.90625 L 1.101562 19.605469 C 0.00390625 19.273438 0.00390625 17.71875 1.101562 17.390625 L 12.082031 14.089844 C 13.261719 13.734375 14.519531 13.734375 15.703125 14.089844 L 26.683594 17.390625 C 27.78125 17.71875 27.78125 19.273438 26.683594 19.605469 Z M 26.683594 19.605469 " fill-opacity="1" fill-rule="nonzero"/></g><g fill="#6f2fef" fill-opacity="1"><g transform="translate(32.104391, 27.935706)"><g><path d="M 7.25 -10.28125 C 8.269531 -10.28125 9.0625 -9.972656 9.625 -9.359375 C 10.195312 -8.753906 10.484375 -7.769531 10.484375 -6.40625 C 10.484375 -6.195312 10.476562 -5.941406 10.46875 -5.640625 C 10.46875 -5.335938 10.457031 -5.015625 10.4375 -4.671875 C 10.425781 -4.335938 10.414062 -4.019531 10.40625 -3.71875 C 10.40625 -3.414062 10.40625 -3.160156 10.40625 -2.953125 C 10.40625 -2.734375 10.40625 -2.492188 10.40625 -2.234375 C 10.414062 -1.984375 10.425781 -1.71875 10.4375 -1.4375 C 10.445312 -1.164062 10.457031 -0.894531 10.46875 -0.625 C 10.476562 -0.363281 10.492188 -0.117188 10.515625 0.109375 C 10.328125 0.078125 10.09375 0.0507812 9.8125 0.03125 C 9.539062 0.0078125 9.25 0 8.9375 0 C 8.644531 0 8.351562 0.0078125 8.0625 0.03125 C 7.78125 0.0507812 7.550781 0.078125 7.375 0.109375 C 7.46875 -0.691406 7.53125 -1.601562 7.5625 -2.625 C 7.59375 -3.65625 7.609375 -4.703125 7.609375 -5.765625 C 7.609375 -6.765625 7.445312 -7.457031 7.125 -7.84375 C 6.800781 -8.238281 6.390625 -8.4375 5.890625 -8.4375 C 5.523438 -8.4375 5.226562 -8.351562 5 -8.1875 C 4.769531 -8.019531 4.582031 -7.789062 4.4375 -7.5 C 4.300781 -7.207031 4.207031 -6.863281 4.15625 -6.46875 C 4.101562 -6.070312 4.078125 -5.644531 4.078125 -5.1875 C 4.078125 -4.570312 4.078125 -4.015625 4.078125 -3.515625 C 4.085938 -3.023438 4.09375 -2.570312 4.09375 -2.15625 C 4.101562 -1.738281 4.117188 -1.34375 4.140625 -0.96875 C 4.160156 -0.601562 4.191406 -0.242188 4.234375 0.109375 C 3.960938 0.078125 3.707031 0.0507812 3.46875 0.03125 C 3.226562 0.0078125 2.960938 0 2.671875 0 C 2.378906 0 2.117188 0.0078125 1.890625 0.03125 C 1.660156 0.0507812 1.398438 0.078125 1.109375 0.109375 C 1.179688 -0.734375 1.226562 -1.53125 1.25 -2.28125 C 1.269531 -3.03125 1.28125 -3.675781 1.28125 -4.21875 C 1.28125 -5.164062 1.273438 -5.925781 1.265625 -6.5 C 1.253906 -7.082031 1.242188 -7.566406 1.234375 -7.953125 C 1.222656 -8.347656 1.207031 -8.691406 1.1875 -8.984375 C 1.164062 -9.273438 1.140625 -9.613281 1.109375 -10 C 1.367188 -9.976562 1.644531 -9.957031 1.9375 -9.9375 C 2.226562 -9.914062 2.445312 -9.90625 2.59375 -9.90625 C 2.71875 -9.90625 2.878906 -9.910156 3.078125 -9.921875 C 3.285156 -9.929688 3.628906 -9.957031 4.109375 -10 L 4.03125 -8.4375 L 4.078125 -8.4375 C 4.460938 -9.019531 4.921875 -9.472656 5.453125 -9.796875 C 5.984375 -10.117188 6.582031 -10.28125 7.25 -10.28125 Z M 7.25 -10.28125 "/></g></g></g><g fill="#6f2fef" fill-opacity="1"><g transform="translate(43.715576, 27.935706)"><g><path d="M 7 -5.890625 C 6.96875 -7.078125 6.820312 -7.945312 6.5625 -8.5 C 6.3125 -9.0625 5.941406 -9.34375 5.453125 -9.34375 C 4.984375 -9.34375 4.597656 -9.0625 4.296875 -8.5 C 3.992188 -7.945312 3.820312 -7.078125 3.78125 -5.890625 Z M 5.53125 -10.28125 C 6.882812 -10.28125 7.929688 -9.875 8.671875 -9.0625 C 9.421875 -8.257812 9.796875 -7.097656 9.796875 -5.578125 C 9.796875 -5.460938 9.796875 -5.335938 9.796875 -5.203125 C 9.796875 -5.066406 9.789062 -4.984375 9.78125 -4.953125 L 3.78125 -4.953125 C 3.78125 -3.679688 4.023438 -2.703125 4.515625 -2.015625 C 5.003906 -1.328125 5.691406 -0.984375 6.578125 -0.984375 C 7.054688 -0.984375 7.507812 -1.054688 7.9375 -1.203125 C 8.375 -1.359375 8.78125 -1.597656 9.15625 -1.921875 L 9.40625 -1.734375 L 8.9375 -0.5625 C 8.488281 -0.21875 8.007812 0.0195312 7.5 0.15625 C 6.988281 0.300781 6.414062 0.375 5.78125 0.375 C 5.019531 0.375 4.320312 0.253906 3.6875 0.015625 C 3.0625 -0.210938 2.523438 -0.550781 2.078125 -1 C 1.640625 -1.457031 1.296875 -2.015625 1.046875 -2.671875 C 0.804688 -3.328125 0.6875 -4.070312 0.6875 -4.90625 C 0.6875 -6.632812 1.113281 -7.960938 1.96875 -8.890625 C 2.832031 -9.816406 4.019531 -10.28125 5.53125 -10.28125 Z M 5.53125 -10.28125 "/></g></g></g><g fill="#6f2fef" fill-opacity="1"><g transform="translate(54.157287, 27.935706)"><g><path d="M 0.5625 -10 C 1.0625 -9.957031 1.445312 -9.929688 1.71875 -9.921875 C 1.988281 -9.910156 2.203125 -9.90625 2.359375 -9.90625 C 2.492188 -9.90625 2.691406 -9.910156 2.953125 -9.921875 C 3.210938 -9.929688 3.578125 -9.957031 4.046875 -10 L 5.84375 -6.6875 L 6.984375 -8.359375 C 7.148438 -8.609375 7.316406 -8.867188 7.484375 -9.140625 C 7.660156 -9.421875 7.835938 -9.707031 8.015625 -10 C 8.210938 -9.957031 8.390625 -9.929688 8.546875 -9.921875 C 8.710938 -9.910156 8.832031 -9.90625 8.90625 -9.90625 C 8.96875 -9.90625 9.0625 -9.910156 9.1875 -9.921875 C 9.3125 -9.929688 9.539062 -9.957031 9.875 -10 C 9.832031 -9.957031 9.734375 -9.835938 9.578125 -9.640625 C 9.421875 -9.453125 9.226562 -9.210938 9 -8.921875 C 8.78125 -8.628906 8.539062 -8.316406 8.28125 -7.984375 C 8.019531 -7.648438 7.769531 -7.320312 7.53125 -7 C 7.300781 -6.6875 7.085938 -6.40625 6.890625 -6.15625 C 6.691406 -5.90625 6.550781 -5.726562 6.46875 -5.625 L 9.90625 0.109375 C 9.625 0.078125 9.390625 0.0507812 9.203125 0.03125 C 9.015625 0.0195312 8.859375 0.0078125 8.734375 0 C 8.609375 0 8.503906 0 8.421875 0 C 8.335938 0 8.257812 0 8.1875 0 C 8.113281 0 8.039062 0 7.96875 0 C 7.894531 0 7.796875 0 7.671875 0 C 7.546875 0.0078125 7.390625 0.0195312 7.203125 0.03125 C 7.015625 0.0507812 6.769531 0.078125 6.46875 0.109375 L 4.546875 -3.453125 C 4.171875 -2.898438 3.800781 -2.332031 3.4375 -1.75 C 3.070312 -1.175781 2.707031 -0.554688 2.34375 0.109375 C 2.101562 0.0664062 1.914062 0.0351562 1.78125 0.015625 C 1.65625 0.00390625 1.554688 0 1.484375 0 C 1.410156 0 1.3125 0.00390625 1.1875 0.015625 C 1.0625 0.0351562 0.847656 0.0664062 0.546875 0.109375 L 1.71875 -1.4375 C 2.101562 -1.957031 2.472656 -2.46875 2.828125 -2.96875 C 3.179688 -3.476562 3.535156 -3.976562 3.890625 -4.46875 C 3.734375 -4.75 3.523438 -5.109375 3.265625 -5.546875 C 3.015625 -5.984375 2.734375 -6.457031 2.421875 -6.96875 C 2.117188 -7.488281 1.800781 -8.015625 1.46875 -8.546875 C 1.144531 -9.078125 0.84375 -9.5625 0.5625 -10 Z M 0.5625 -10 "/></g></g></g><g fill="#6f2fef" fill-opacity="1"><g transform="translate(64.598999, 27.935706)"><g><path d="M 1.109375 -10 C 1.285156 -9.976562 1.515625 -9.957031 1.796875 -9.9375 C 2.078125 -9.914062 2.367188 -9.90625 2.671875 -9.90625 C 2.960938 -9.90625 3.25 -9.914062 3.53125 -9.9375 C 3.820312 -9.957031 4.054688 -9.976562 4.234375 -10 C 4.140625 -9.207031 4.078125 -8.304688 4.046875 -7.296875 C 4.023438 -6.285156 4.015625 -5.238281 4.015625 -4.15625 C 4.015625 -3.15625 4.164062 -2.457031 4.46875 -2.0625 C 4.78125 -1.664062 5.195312 -1.46875 5.71875 -1.46875 C 6.394531 -1.46875 6.867188 -1.75 7.140625 -2.3125 C 7.410156 -2.882812 7.546875 -3.703125 7.546875 -4.765625 C 7.546875 -5.359375 7.539062 -5.894531 7.53125 -6.375 C 7.519531 -6.863281 7.507812 -7.3125 7.5 -7.71875 C 7.488281 -8.125 7.472656 -8.507812 7.453125 -8.875 C 7.429688 -9.25 7.40625 -9.625 7.375 -10 C 7.664062 -9.976562 7.925781 -9.957031 8.15625 -9.9375 C 8.382812 -9.914062 8.644531 -9.90625 8.9375 -9.90625 C 9.226562 -9.90625 9.492188 -9.914062 9.734375 -9.9375 C 9.972656 -9.957031 10.234375 -9.976562 10.515625 -10 C 10.441406 -9.195312 10.394531 -8.410156 10.375 -7.640625 C 10.351562 -6.878906 10.34375 -6.21875 10.34375 -5.65625 C 10.34375 -4.9375 10.34375 -4.300781 10.34375 -3.75 C 10.34375 -3.195312 10.347656 -2.695312 10.359375 -2.25 C 10.367188 -1.8125 10.382812 -1.398438 10.40625 -1.015625 C 10.4375 -0.640625 10.472656 -0.265625 10.515625 0.109375 C 10.273438 0.078125 10.070312 0.0507812 9.90625 0.03125 C 9.75 0.0195312 9.613281 0.0078125 9.5 0 C 9.394531 0 9.300781 0 9.21875 0 C 9.144531 0 9.082031 0 9.03125 0 C 8.90625 0 8.742188 0 8.546875 0 C 8.359375 0.0078125 8.007812 0.046875 7.5 0.109375 L 7.578125 -1.46875 L 7.546875 -1.46875 C 7.148438 -0.875 6.6875 -0.414062 6.15625 -0.09375 C 5.632812 0.21875 5.035156 0.375 4.359375 0.375 C 3.273438 0.375 2.460938 0.0625 1.921875 -0.5625 C 1.390625 -1.1875 1.125 -2.175781 1.125 -3.53125 C 1.125 -3.8125 1.128906 -4.117188 1.140625 -4.453125 C 1.148438 -4.785156 1.160156 -5.113281 1.171875 -5.4375 C 1.179688 -5.769531 1.191406 -6.070312 1.203125 -6.34375 C 1.210938 -6.613281 1.21875 -6.828125 1.21875 -6.984375 C 1.21875 -7.378906 1.207031 -7.84375 1.1875 -8.375 C 1.164062 -8.914062 1.140625 -9.457031 1.109375 -10 Z M 1.109375 -10 "/></g></g></g><g fill="#6f2fef" fill-opacity="1"><g transform="translate(76.210184, 27.935706)"><g><path d="M 4.328125 -10.28125 C 4.878906 -10.28125 5.378906 -10.195312 5.828125 -10.03125 C 6.285156 -9.863281 6.753906 -9.617188 7.234375 -9.296875 C 7.109375 -9.015625 7.003906 -8.710938 6.921875 -8.390625 C 6.835938 -8.078125 6.773438 -7.765625 6.734375 -7.453125 L 6.140625 -7.453125 C 6.015625 -7.972656 5.769531 -8.394531 5.40625 -8.71875 C 5.050781 -9.050781 4.609375 -9.21875 4.078125 -9.21875 C 3.640625 -9.21875 3.28125 -9.101562 3 -8.875 C 2.726562 -8.65625 2.59375 -8.363281 2.59375 -8 C 2.59375 -7.738281 2.703125 -7.484375 2.921875 -7.234375 C 3.148438 -6.984375 3.625 -6.726562 4.34375 -6.46875 C 5 -6.25 5.53125 -6.015625 5.9375 -5.765625 C 6.351562 -5.523438 6.675781 -5.269531 6.90625 -5 C 7.144531 -4.726562 7.304688 -4.4375 7.390625 -4.125 C 7.472656 -3.8125 7.515625 -3.484375 7.515625 -3.140625 C 7.515625 -2.585938 7.410156 -2.09375 7.203125 -1.65625 C 6.992188 -1.21875 6.707031 -0.847656 6.34375 -0.546875 C 5.988281 -0.253906 5.5625 -0.03125 5.0625 0.125 C 4.570312 0.289062 4.046875 0.375 3.484375 0.375 C 3.015625 0.375 2.519531 0.296875 2 0.140625 C 1.488281 -0.00390625 1.023438 -0.222656 0.609375 -0.515625 C 0.691406 -0.835938 0.753906 -1.160156 0.796875 -1.484375 C 0.847656 -1.804688 0.890625 -2.15625 0.921875 -2.53125 L 1.4375 -2.53125 C 1.851562 -1.382812 2.675781 -0.8125 3.90625 -0.8125 C 4.351562 -0.8125 4.71875 -0.929688 5 -1.171875 C 5.289062 -1.410156 5.4375 -1.6875 5.4375 -2 C 5.4375 -2.332031 5.296875 -2.609375 5.015625 -2.828125 C 4.734375 -3.046875 4.253906 -3.296875 3.578125 -3.578125 C 2.984375 -3.796875 2.5 -4.023438 2.125 -4.265625 C 1.75 -4.515625 1.445312 -4.773438 1.21875 -5.046875 C 1 -5.328125 0.84375 -5.617188 0.75 -5.921875 C 0.664062 -6.234375 0.625 -6.566406 0.625 -6.921875 C 0.625 -7.460938 0.722656 -7.941406 0.921875 -8.359375 C 1.117188 -8.773438 1.382812 -9.125 1.71875 -9.40625 C 2.050781 -9.695312 2.4375 -9.914062 2.875 -10.0625 C 3.320312 -10.207031 3.804688 -10.28125 4.328125 -10.28125 Z M 4.328125 -10.28125 "/></g></g></g><g fill="#6f2fef" fill-opacity="1"><g transform="translate(84.336029, 27.935706)"><g/></g></g><g fill="#6f2fef" fill-opacity="1"><g transform="translate(85.437942, 24.073707)"><g><path d="M 2.90625 -3.046875 C 3.394531 -3.046875 3.800781 -2.875 4.125 -2.53125 C 4.445312 -2.195312 4.609375 -1.800781 4.609375 -1.34375 C 4.609375 -0.863281 4.441406 -0.457031 4.109375 -0.125 C 3.773438 0.207031 3.375 0.375 2.90625 0.375 C 2.664062 0.375 2.441406 0.328125 2.234375 0.234375 C 2.035156 0.148438 1.859375 0.03125 1.703125 -0.125 C 1.546875 -0.289062 1.421875 -0.472656 1.328125 -0.671875 C 1.234375 -0.878906 1.1875 -1.101562 1.1875 -1.34375 C 1.1875 -1.5625 1.234375 -1.773438 1.328125 -1.984375 C 1.421875 -2.191406 1.546875 -2.375 1.703125 -2.53125 C 1.859375 -2.695312 2.035156 -2.820312 2.234375 -2.90625 C 2.441406 -3 2.664062 -3.046875 2.90625 -3.046875 Z M 2.90625 -3.046875 "/></g></g></g><g fill="#6f2fef" fill-opacity="1"><g transform="translate(91.247284, 29.407808)"><g><path d="M 5.28125 -14.03125 C 6.71875 -14.03125 7.816406 -13.742188 8.578125 -13.171875 C 9.335938 -12.609375 9.71875 -11.804688 9.71875 -10.765625 C 9.71875 -9.265625 8.75 -8.179688 6.8125 -7.515625 L 6.8125 -7.328125 C 7.445312 -7.234375 7.984375 -7.097656 8.421875 -6.921875 C 8.867188 -6.753906 9.222656 -6.53125 9.484375 -6.25 C 9.742188 -5.976562 9.929688 -5.644531 10.046875 -5.25 C 10.171875 -4.863281 10.234375 -4.410156 10.234375 -3.890625 C 10.234375 -3.242188 10.085938 -2.660156 9.796875 -2.140625 C 9.515625 -1.628906 9.128906 -1.1875 8.640625 -0.8125 C 8.160156 -0.445312 7.601562 -0.164062 6.96875 0.03125 C 6.332031 0.226562 5.664062 0.328125 4.96875 0.328125 C 4.050781 0.328125 3.25 0.203125 2.5625 -0.046875 C 1.875 -0.296875 1.304688 -0.710938 0.859375 -1.296875 C 1.078125 -1.585938 1.257812 -1.828125 1.40625 -2.015625 C 1.550781 -2.210938 1.671875 -2.378906 1.765625 -2.515625 C 1.867188 -2.660156 1.945312 -2.773438 2 -2.859375 C 2.0625 -2.941406 2.113281 -3.023438 2.15625 -3.109375 L 2.421875 -3.046875 C 2.546875 -2.253906 2.8125 -1.648438 3.21875 -1.234375 C 3.632812 -0.816406 4.117188 -0.609375 4.671875 -0.609375 C 5.347656 -0.609375 5.910156 -0.878906 6.359375 -1.421875 C 6.816406 -1.972656 7.046875 -2.710938 7.046875 -3.640625 C 7.046875 -4.554688 6.820312 -5.296875 6.375 -5.859375 C 5.9375 -6.421875 5.359375 -6.703125 4.640625 -6.703125 C 4.472656 -6.703125 4.3125 -6.695312 4.15625 -6.6875 C 4 -6.675781 3.851562 -6.660156 3.71875 -6.640625 L 3.71875 -7.703125 C 3.894531 -7.679688 4.015625 -7.664062 4.078125 -7.65625 C 4.140625 -7.644531 4.203125 -7.640625 4.265625 -7.640625 C 5.835938 -7.640625 6.625 -8.617188 6.625 -10.578125 C 6.625 -11.421875 6.457031 -12.066406 6.125 -12.515625 C 5.800781 -12.960938 5.367188 -13.1875 4.828125 -13.1875 C 4.285156 -13.1875 3.847656 -12.96875 3.515625 -12.53125 C 3.179688 -12.101562 2.972656 -11.472656 2.890625 -10.640625 L 2.59375 -10.578125 C 2.4375 -10.765625 2.238281 -10.976562 2 -11.21875 C 1.769531 -11.457031 1.5 -11.710938 1.1875 -11.984375 C 1.625 -12.742188 2.164062 -13.273438 2.8125 -13.578125 C 3.457031 -13.878906 4.28125 -14.03125 5.28125 -14.03125 Z M 5.28125 -14.03125 "/></g></g></g><g fill="#6f2fef" fill-opacity="1"><g transform="translate(102.858469, 29.407808)"><g><path d="M 4.234375 -4.140625 C 4.234375 -2.953125 4.375 -2.066406 4.65625 -1.484375 C 4.9375 -0.898438 5.390625 -0.609375 6.015625 -0.609375 C 6.554688 -0.609375 6.984375 -0.894531 7.296875 -1.46875 C 7.609375 -2.050781 7.765625 -2.867188 7.765625 -3.921875 C 7.765625 -4.984375 7.617188 -5.789062 7.328125 -6.34375 C 7.035156 -6.894531 6.59375 -7.171875 6 -7.171875 C 5.476562 -7.171875 5.050781 -6.914062 4.71875 -6.40625 C 4.394531 -5.90625 4.234375 -5.148438 4.234375 -4.140625 Z M 7.5625 -14.03125 C 7.78125 -14.03125 7.984375 -14.019531 8.171875 -14 C 8.359375 -13.976562 8.5625 -13.957031 8.78125 -13.9375 C 8.832031 -13.78125 8.890625 -13.640625 8.953125 -13.515625 C 9.015625 -13.390625 9.082031 -13.257812 9.15625 -13.125 L 9.03125 -13 C 8.832031 -13.0625 8.632812 -13.109375 8.4375 -13.140625 C 8.238281 -13.171875 8.023438 -13.1875 7.796875 -13.1875 C 7.304688 -13.1875 6.84375 -13.039062 6.40625 -12.75 C 5.976562 -12.46875 5.597656 -12.066406 5.265625 -11.546875 C 4.941406 -11.023438 4.679688 -10.394531 4.484375 -9.65625 C 4.296875 -8.914062 4.191406 -8.097656 4.171875 -7.203125 L 4.21875 -7.171875 C 4.5 -7.515625 4.878906 -7.796875 5.359375 -8.015625 C 5.835938 -8.242188 6.410156 -8.359375 7.078125 -8.359375 C 7.648438 -8.359375 8.171875 -8.265625 8.640625 -8.078125 C 9.117188 -7.890625 9.53125 -7.625 9.875 -7.28125 C 10.226562 -6.9375 10.5 -6.515625 10.6875 -6.015625 C 10.875 -5.523438 10.96875 -4.972656 10.96875 -4.359375 C 10.96875 -3.691406 10.84375 -3.066406 10.59375 -2.484375 C 10.34375 -1.910156 10.003906 -1.414062 9.578125 -1 C 9.148438 -0.582031 8.644531 -0.253906 8.0625 -0.015625 C 7.488281 0.210938 6.875 0.328125 6.21875 0.328125 C 4.625 0.328125 3.378906 -0.164062 2.484375 -1.15625 C 1.597656 -2.15625 1.15625 -3.613281 1.15625 -5.53125 C 1.15625 -6.84375 1.3125 -8.023438 1.625 -9.078125 C 1.9375 -10.128906 2.375 -11.023438 2.9375 -11.765625 C 3.5 -12.503906 4.171875 -13.066406 4.953125 -13.453125 C 5.742188 -13.835938 6.613281 -14.03125 7.5625 -14.03125 Z M 7.5625 -14.03125 "/></g></g></g><g fill="#6f2fef" fill-opacity="1"><g transform="translate(114.469654, 29.407808)"><g><path d="M 4.015625 -7.109375 C 4.015625 -5.804688 4.035156 -4.738281 4.078125 -3.90625 C 4.128906 -3.070312 4.222656 -2.410156 4.359375 -1.921875 C 4.503906 -1.429688 4.6875 -1.085938 4.90625 -0.890625 C 5.132812 -0.703125 5.425781 -0.609375 5.78125 -0.609375 C 6.15625 -0.609375 6.460938 -0.734375 6.703125 -0.984375 C 6.941406 -1.234375 7.125 -1.613281 7.25 -2.125 C 7.382812 -2.644531 7.476562 -3.300781 7.53125 -4.09375 C 7.582031 -4.882812 7.609375 -5.832031 7.609375 -6.9375 C 7.609375 -8.039062 7.582031 -8.988281 7.53125 -9.78125 C 7.476562 -10.570312 7.382812 -11.21875 7.25 -11.71875 C 7.125 -12.21875 6.941406 -12.585938 6.703125 -12.828125 C 6.460938 -13.066406 6.164062 -13.1875 5.8125 -13.1875 C 5.476562 -13.1875 5.195312 -13.082031 4.96875 -12.875 C 4.75 -12.675781 4.566406 -12.335938 4.421875 -11.859375 C 4.273438 -11.390625 4.171875 -10.765625 4.109375 -9.984375 C 4.046875 -9.203125 4.015625 -8.242188 4.015625 -7.109375 Z M 5.953125 -14.03125 C 7.515625 -14.03125 8.710938 -13.453125 9.546875 -12.296875 C 10.378906 -11.148438 10.796875 -9.472656 10.796875 -7.265625 C 10.796875 -4.765625 10.375 -2.875 9.53125 -1.59375 C 8.6875 -0.3125 7.445312 0.328125 5.8125 0.328125 C 4.207031 0.328125 2.972656 -0.273438 2.109375 -1.484375 C 1.242188 -2.691406 0.8125 -4.515625 0.8125 -6.953125 C 0.8125 -9.234375 1.253906 -10.984375 2.140625 -12.203125 C 3.035156 -13.421875 4.304688 -14.03125 5.953125 -14.03125 Z M 5.953125 -14.03125 "/></g></g></g></svg>