<svg xmlns="http://www.w3.org/2000/svg" xmlns:xlink="http://www.w3.org/1999/xlink" width="500" zoomAndPan="magnify" viewBox="0 0 375 374.999991" height="500" preserveAspectRatio="xMidYMid meet" version="1.0"><defs><g/><clipPath id="c1f6b99bb0"><path d="M 17 131 L 358 131 L 358 248.804688 L 17 248.804688 Z M 17 131 " clip-rule="nonzero"/></clipPath><clipPath id="6f1c82a7a6"><path d="M 17 69 L 358 69 L 358 186 L 17 186 Z M 17 69 " clip-rule="nonzero"/></clipPath><clipPath id="2db00055d4"><path d="M 347.527344 141.347656 L 210.140625 182.628906 C 195.371094 187.066406 179.625 187.066406 164.855469 182.628906 L 27.46875 141.347656 C 13.71875 137.214844 13.71875 117.742188 27.46875 113.609375 L 164.855469 72.328125 C 179.625 67.890625 195.371094 67.890625 210.140625 72.328125 L 347.527344 113.609375 C 361.277344 117.742188 361.277344 137.214844 347.527344 141.347656 Z M 347.527344 141.347656 " clip-rule="nonzero"/></clipPath><linearGradient x1="-5.019512" gradientTransform="matrix(0.684919, 0, 0, 0.684919, 17.155121, 6.89993)" y1="176.047" x2="502.429682" gradientUnits="userSpaceOnUse" y2="176.047" id="7cdf024578"><stop stop-opacity="1" stop-color="rgb(36.898804%, 8.999634%, 92.199707%)" offset="0"/><stop stop-opacity="1" stop-color="rgb(37.083435%, 9.172058%, 92.195129%)" offset="0.015625"/><stop stop-opacity="1" stop-color="rgb(37.519836%, 9.580994%, 92.182922%)" offset="0.0195312"/><stop stop-opacity="1" stop-color="rgb(37.771606%, 9.817505%, 92.176819%)" offset="0.0234375"/><stop stop-opacity="1" stop-color="rgb(38.021851%, 10.05249%, 92.170715%)" offset="0.0273438"/><stop stop-opacity="1" stop-color="rgb(38.273621%, 10.289001%, 92.164612%)" offset="0.03125"/><stop stop-opacity="1" stop-color="rgb(38.525391%, 10.523987%, 92.156982%)" offset="0.0351562"/><stop stop-opacity="1" stop-color="rgb(38.777161%, 10.760498%, 92.150879%)" offset="0.0390625"/><stop stop-opacity="1" stop-color="rgb(39.028931%, 10.997009%, 92.144775%)" offset="0.0429687"/><stop stop-opacity="1" stop-color="rgb(39.280701%, 11.233521%, 92.138672%)" offset="0.046875"/><stop stop-opacity="1" stop-color="rgb(39.530945%, 11.468506%, 92.132568%)" offset="0.0507812"/><stop stop-opacity="1" stop-color="rgb(39.782715%, 11.705017%, 92.126465%)" offset="0.0546875"/><stop stop-opacity="1" stop-color="rgb(40.034485%, 11.940002%, 92.118835%)" offset="0.0585937"/><stop stop-opacity="1" stop-color="rgb(40.286255%, 12.176514%, 92.112732%)" offset="0.0625"/><stop stop-opacity="1" stop-color="rgb(40.536499%, 12.411499%, 92.106628%)" offset="0.0664062"/><stop stop-opacity="1" stop-color="rgb(40.788269%, 12.64801%, 92.100525%)" offset="0.0703125"/><stop stop-opacity="1" stop-color="rgb(41.040039%, 12.882996%, 92.094421%)" offset="0.0742188"/><stop stop-opacity="1" stop-color="rgb(41.291809%, 13.119507%, 92.088318%)" offset="0.078125"/><stop stop-opacity="1" stop-color="rgb(41.542053%, 13.356018%, 92.080688%)" offset="0.0820312"/><stop stop-opacity="1" stop-color="rgb(41.793823%, 13.592529%, 92.074585%)" offset="0.0859375"/><stop stop-opacity="1" stop-color="rgb(42.045593%, 13.827515%, 92.068481%)" offset="0.0898437"/><stop stop-opacity="1" stop-color="rgb(42.297363%, 14.064026%, 92.062378%)" offset="0.09375"/><stop stop-opacity="1" stop-color="rgb(42.549133%, 14.299011%, 92.056274%)" offset="0.0976562"/><stop stop-opacity="1" stop-color="rgb(42.800903%, 14.535522%, 92.050171%)" offset="0.101562"/><stop stop-opacity="1" stop-color="rgb(43.051147%, 14.770508%, 92.042542%)" offset="0.105469"/><stop stop-opacity="1" stop-color="rgb(43.302917%, 15.007019%, 92.036438%)" offset="0.109375"/><stop stop-opacity="1" stop-color="rgb(43.554688%, 15.24353%, 92.030334%)" offset="0.113281"/><stop stop-opacity="1" stop-color="rgb(43.806458%, 15.480042%, 92.024231%)" offset="0.117187"/><stop stop-opacity="1" stop-color="rgb(44.056702%, 15.715027%, 92.018127%)" offset="0.121094"/><stop stop-opacity="1" stop-color="rgb(44.308472%, 15.951538%, 92.012024%)" offset="0.125"/><stop stop-opacity="1" stop-color="rgb(44.560242%, 16.186523%, 92.004395%)" offset="0.128906"/><stop stop-opacity="1" stop-color="rgb(44.812012%, 16.423035%, 91.998291%)" offset="0.132812"/><stop stop-opacity="1" stop-color="rgb(45.063782%, 16.65802%, 91.992188%)" offset="0.136719"/><stop stop-opacity="1" stop-color="rgb(45.315552%, 16.894531%, 91.986084%)" offset="0.140625"/><stop stop-opacity="1" stop-color="rgb(45.565796%, 17.129517%, 91.978455%)" offset="0.144531"/><stop stop-opacity="1" stop-color="rgb(45.817566%, 17.366028%, 91.972351%)" offset="0.148437"/><stop stop-opacity="1" stop-color="rgb(46.069336%, 17.602539%, 91.966248%)" offset="0.152344"/><stop stop-opacity="1" stop-color="rgb(46.321106%, 17.83905%, 91.960144%)" offset="0.15625"/><stop stop-opacity="1" stop-color="rgb(46.57135%, 18.074036%, 91.954041%)" offset="0.160156"/><stop stop-opacity="1" stop-color="rgb(46.82312%, 18.310547%, 91.947937%)" offset="0.164062"/><stop stop-opacity="1" stop-color="rgb(47.07489%, 18.545532%, 91.940308%)" offset="0.167969"/><stop stop-opacity="1" stop-color="rgb(47.32666%, 18.782043%, 91.934204%)" offset="0.171875"/><stop stop-opacity="1" stop-color="rgb(47.57843%, 19.017029%, 91.928101%)" offset="0.175781"/><stop stop-opacity="1" stop-color="rgb(47.8302%, 19.25354%, 91.921997%)" offset="0.179688"/><stop stop-opacity="1" stop-color="rgb(48.080444%, 19.490051%, 91.915894%)" offset="0.183594"/><stop stop-opacity="1" stop-color="rgb(48.332214%, 19.726562%, 91.90979%)" offset="0.1875"/><stop stop-opacity="1" stop-color="rgb(48.583984%, 19.961548%, 91.902161%)" offset="0.191406"/><stop stop-opacity="1" stop-color="rgb(48.835754%, 20.198059%, 91.896057%)" offset="0.195312"/><stop stop-opacity="1" stop-color="rgb(49.085999%, 20.433044%, 91.889954%)" offset="0.199219"/><stop stop-opacity="1" stop-color="rgb(49.337769%, 20.669556%, 91.88385%)" offset="0.203125"/><stop stop-opacity="1" stop-color="rgb(49.589539%, 20.904541%, 91.877747%)" offset="0.207031"/><stop stop-opacity="1" stop-color="rgb(49.841309%, 21.141052%, 91.871643%)" offset="0.210937"/><stop stop-opacity="1" stop-color="rgb(50.093079%, 21.376038%, 91.864014%)" offset="0.214844"/><stop stop-opacity="1" stop-color="rgb(50.344849%, 21.612549%, 91.85791%)" offset="0.21875"/><stop stop-opacity="1" stop-color="rgb(50.595093%, 21.84906%, 91.851807%)" offset="0.222656"/><stop stop-opacity="1" stop-color="rgb(50.846863%, 22.085571%, 91.845703%)" offset="0.226562"/><stop stop-opacity="1" stop-color="rgb(51.098633%, 22.320557%, 91.8396%)" offset="0.230469"/><stop stop-opacity="1" stop-color="rgb(51.350403%, 22.557068%, 91.833496%)" offset="0.234375"/><stop stop-opacity="1" stop-color="rgb(51.600647%, 22.792053%, 91.825867%)" offset="0.238281"/><stop stop-opacity="1" stop-color="rgb(51.852417%, 23.028564%, 91.819763%)" offset="0.242187"/><stop stop-opacity="1" stop-color="rgb(52.104187%, 23.26355%, 91.81366%)" offset="0.246094"/><stop stop-opacity="1" stop-color="rgb(52.355957%, 23.500061%, 91.807556%)" offset="0.25"/><stop stop-opacity="1" stop-color="rgb(52.607727%, 23.736572%, 91.799927%)" offset="0.253906"/><stop stop-opacity="1" stop-color="rgb(52.859497%, 23.973083%, 91.793823%)" offset="0.257812"/><stop stop-opacity="1" stop-color="rgb(53.109741%, 24.208069%, 91.78772%)" offset="0.261719"/><stop stop-opacity="1" stop-color="rgb(53.361511%, 24.44458%, 91.781616%)" offset="0.265625"/><stop stop-opacity="1" stop-color="rgb(53.613281%, 24.679565%, 91.775513%)" offset="0.269531"/><stop stop-opacity="1" stop-color="rgb(53.865051%, 24.916077%, 91.769409%)" offset="0.273437"/><stop stop-opacity="1" stop-color="rgb(54.115295%, 25.151062%, 91.76178%)" offset="0.277344"/><stop stop-opacity="1" stop-color="rgb(54.367065%, 25.387573%, 91.755676%)" offset="0.28125"/><stop stop-opacity="1" stop-color="rgb(54.618835%, 25.622559%, 91.749573%)" offset="0.285156"/><stop stop-opacity="1" stop-color="rgb(54.870605%, 25.85907%, 91.743469%)" offset="0.289062"/><stop stop-opacity="1" stop-color="rgb(55.12085%, 26.095581%, 91.737366%)" offset="0.292969"/><stop stop-opacity="1" stop-color="rgb(55.37262%, 26.332092%, 91.731262%)" offset="0.296875"/><stop stop-opacity="1" stop-color="rgb(55.62439%, 26.567078%, 91.723633%)" offset="0.300781"/><stop stop-opacity="1" stop-color="rgb(55.87616%, 26.803589%, 91.717529%)" offset="0.304688"/><stop stop-opacity="1" stop-color="rgb(56.12793%, 27.038574%, 91.711426%)" offset="0.308594"/><stop stop-opacity="1" stop-color="rgb(56.3797%, 27.275085%, 91.705322%)" offset="0.3125"/><stop stop-opacity="1" stop-color="rgb(56.629944%, 27.510071%, 91.699219%)" offset="0.316406"/><stop stop-opacity="1" stop-color="rgb(56.881714%, 27.746582%, 91.693115%)" offset="0.320312"/><stop stop-opacity="1" stop-color="rgb(57.133484%, 27.983093%, 91.685486%)" offset="0.324219"/><stop stop-opacity="1" stop-color="rgb(57.385254%, 28.219604%, 91.679382%)" offset="0.328125"/><stop stop-opacity="1" stop-color="rgb(57.635498%, 28.45459%, 91.673279%)" offset="0.332031"/><stop stop-opacity="1" stop-color="rgb(57.887268%, 28.691101%, 91.667175%)" offset="0.335938"/><stop stop-opacity="1" stop-color="rgb(58.139038%, 28.926086%, 91.661072%)" offset="0.339844"/><stop stop-opacity="1" stop-color="rgb(58.390808%, 29.162598%, 91.654968%)" offset="0.34375"/><stop stop-opacity="1" stop-color="rgb(58.642578%, 29.397583%, 91.647339%)" offset="0.347656"/><stop stop-opacity="1" stop-color="rgb(58.894348%, 29.634094%, 91.641235%)" offset="0.351562"/><stop stop-opacity="1" stop-color="rgb(59.144592%, 29.86908%, 91.635132%)" offset="0.355469"/><stop stop-opacity="1" stop-color="rgb(59.396362%, 30.105591%, 91.629028%)" offset="0.359375"/><stop stop-opacity="1" stop-color="rgb(59.648132%, 30.342102%, 91.621399%)" offset="0.363281"/><stop stop-opacity="1" stop-color="rgb(59.899902%, 30.578613%, 91.615295%)" offset="0.367187"/><stop stop-opacity="1" stop-color="rgb(60.150146%, 30.813599%, 91.609192%)" offset="0.371094"/><stop stop-opacity="1" stop-color="rgb(60.401917%, 31.05011%, 91.603088%)" offset="0.375"/><stop stop-opacity="1" stop-color="rgb(60.653687%, 31.285095%, 91.596985%)" offset="0.378906"/><stop stop-opacity="1" stop-color="rgb(60.905457%, 31.521606%, 91.590881%)" offset="0.382812"/><stop stop-opacity="1" stop-color="rgb(61.157227%, 31.756592%, 91.583252%)" offset="0.386719"/><stop stop-opacity="1" stop-color="rgb(61.408997%, 31.993103%, 91.577148%)" offset="0.390625"/><stop stop-opacity="1" stop-color="rgb(61.659241%, 32.229614%, 91.571045%)" offset="0.394531"/><stop stop-opacity="1" stop-color="rgb(61.911011%, 32.466125%, 91.564941%)" offset="0.398438"/><stop stop-opacity="1" stop-color="rgb(62.162781%, 32.701111%, 91.558838%)" offset="0.402344"/><stop stop-opacity="1" stop-color="rgb(62.414551%, 32.937622%, 91.552734%)" offset="0.40625"/><stop stop-opacity="1" stop-color="rgb(62.664795%, 33.172607%, 91.545105%)" offset="0.410156"/><stop stop-opacity="1" stop-color="rgb(62.916565%, 33.409119%, 91.539001%)" offset="0.414062"/><stop stop-opacity="1" stop-color="rgb(63.168335%, 33.644104%, 91.532898%)" offset="0.417969"/><stop stop-opacity="1" stop-color="rgb(63.420105%, 33.880615%, 91.526794%)" offset="0.421875"/><stop stop-opacity="1" stop-color="rgb(63.671875%, 34.115601%, 91.520691%)" offset="0.425781"/><stop stop-opacity="1" stop-color="rgb(63.923645%, 34.352112%, 91.514587%)" offset="0.429688"/><stop stop-opacity="1" stop-color="rgb(64.173889%, 34.588623%, 91.506958%)" offset="0.433594"/><stop stop-opacity="1" stop-color="rgb(64.425659%, 34.825134%, 91.500854%)" offset="0.4375"/><stop stop-opacity="1" stop-color="rgb(64.677429%, 35.06012%, 91.494751%)" offset="0.441406"/><stop stop-opacity="1" stop-color="rgb(64.929199%, 35.296631%, 91.488647%)" offset="0.445312"/><stop stop-opacity="1" stop-color="rgb(65.179443%, 35.531616%, 91.482544%)" offset="0.449219"/><stop stop-opacity="1" stop-color="rgb(65.431213%, 35.768127%, 91.47644%)" offset="0.453125"/><stop stop-opacity="1" stop-color="rgb(65.682983%, 36.003113%, 91.468811%)" offset="0.457031"/><stop stop-opacity="1" stop-color="rgb(65.934753%, 36.239624%, 91.462708%)" offset="0.460937"/><stop stop-opacity="1" stop-color="rgb(66.186523%, 36.476135%, 91.456604%)" offset="0.464844"/><stop stop-opacity="1" stop-color="rgb(66.438293%, 36.712646%, 91.4505%)" offset="0.46875"/><stop stop-opacity="1" stop-color="rgb(66.688538%, 36.947632%, 91.442871%)" offset="0.472656"/><stop stop-opacity="1" stop-color="rgb(66.940308%, 37.184143%, 91.436768%)" offset="0.476562"/><stop stop-opacity="1" stop-color="rgb(67.192078%, 37.419128%, 91.430664%)" offset="0.480469"/><stop stop-opacity="1" stop-color="rgb(67.443848%, 37.65564%, 91.424561%)" offset="0.484375"/><stop stop-opacity="1" stop-color="rgb(67.694092%, 37.890625%, 91.418457%)" offset="0.488281"/><stop stop-opacity="1" stop-color="rgb(67.945862%, 38.127136%, 91.412354%)" offset="0.492188"/><stop stop-opacity="1" stop-color="rgb(68.197632%, 38.362122%, 91.404724%)" offset="0.496094"/><stop stop-opacity="1" stop-color="rgb(68.449402%, 38.598633%, 91.398621%)" offset="0.5"/><stop stop-opacity="1" stop-color="rgb(68.699646%, 38.835144%, 91.392517%)" offset="0.503906"/><stop stop-opacity="1" stop-color="rgb(68.951416%, 39.071655%, 91.386414%)" offset="0.507812"/><stop stop-opacity="1" stop-color="rgb(69.203186%, 39.306641%, 91.38031%)" offset="0.511719"/><stop stop-opacity="1" stop-color="rgb(69.454956%, 39.543152%, 91.374207%)" offset="0.515625"/><stop stop-opacity="1" stop-color="rgb(69.706726%, 39.778137%, 91.366577%)" offset="0.519531"/><stop stop-opacity="1" stop-color="rgb(69.958496%, 40.014648%, 91.360474%)" offset="0.523437"/><stop stop-opacity="1" stop-color="rgb(70.20874%, 40.249634%, 91.35437%)" offset="0.527344"/><stop stop-opacity="1" stop-color="rgb(70.46051%, 40.486145%, 91.348267%)" offset="0.53125"/><stop stop-opacity="1" stop-color="rgb(70.71228%, 40.722656%, 91.342163%)" offset="0.535156"/><stop stop-opacity="1" stop-color="rgb(70.96405%, 40.959167%, 91.33606%)" offset="0.539062"/><stop stop-opacity="1" stop-color="rgb(71.214294%, 41.194153%, 91.32843%)" offset="0.542969"/><stop stop-opacity="1" stop-color="rgb(71.466064%, 41.430664%, 91.322327%)" offset="0.546875"/><stop stop-opacity="1" stop-color="rgb(71.717834%, 41.665649%, 91.316223%)" offset="0.550781"/><stop stop-opacity="1" stop-color="rgb(71.969604%, 41.902161%, 91.31012%)" offset="0.554688"/><stop stop-opacity="1" stop-color="rgb(72.221375%, 42.137146%, 91.304016%)" offset="0.558594"/><stop stop-opacity="1" stop-color="rgb(72.473145%, 42.373657%, 91.297913%)" offset="0.5625"/><stop stop-opacity="1" stop-color="rgb(72.723389%, 42.608643%, 91.290283%)" offset="0.566406"/><stop stop-opacity="1" stop-color="rgb(72.975159%, 42.845154%, 91.28418%)" offset="0.570312"/><stop stop-opacity="1" stop-color="rgb(73.226929%, 43.081665%, 91.278076%)" offset="0.574219"/><stop stop-opacity="1" stop-color="rgb(73.478699%, 43.318176%, 91.271973%)" offset="0.578125"/><stop stop-opacity="1" stop-color="rgb(73.728943%, 43.553162%, 91.264343%)" offset="0.582031"/><stop stop-opacity="1" stop-color="rgb(73.980713%, 43.789673%, 91.25824%)" offset="0.585938"/><stop stop-opacity="1" stop-color="rgb(74.232483%, 44.024658%, 91.252136%)" offset="0.589844"/><stop stop-opacity="1" stop-color="rgb(74.484253%, 44.261169%, 91.246033%)" offset="0.59375"/><stop stop-opacity="1" stop-color="rgb(74.736023%, 44.496155%, 91.239929%)" offset="0.597656"/><stop stop-opacity="1" stop-color="rgb(74.987793%, 44.732666%, 91.233826%)" offset="0.601562"/><stop stop-opacity="1" stop-color="rgb(75.238037%, 44.969177%, 91.226196%)" offset="0.605469"/><stop stop-opacity="1" stop-color="rgb(75.489807%, 45.205688%, 91.220093%)" offset="0.609375"/><stop stop-opacity="1" stop-color="rgb(75.741577%, 45.440674%, 91.213989%)" offset="0.613281"/><stop stop-opacity="1" stop-color="rgb(75.993347%, 45.677185%, 91.207886%)" offset="0.617188"/><stop stop-opacity="1" stop-color="rgb(76.243591%, 45.91217%, 91.201782%)" offset="0.621094"/><stop stop-opacity="1" stop-color="rgb(76.495361%, 46.148682%, 91.195679%)" offset="0.625"/><stop stop-opacity="1" stop-color="rgb(76.747131%, 46.383667%, 91.188049%)" offset="0.628906"/><stop stop-opacity="1" stop-color="rgb(76.998901%, 46.620178%, 91.181946%)" offset="0.632812"/><stop stop-opacity="1" stop-color="rgb(77.250671%, 46.855164%, 91.175842%)" offset="0.636719"/><stop stop-opacity="1" stop-color="rgb(77.502441%, 47.091675%, 91.169739%)" offset="0.640625"/><stop stop-opacity="1" stop-color="rgb(77.752686%, 47.328186%, 91.163635%)" offset="0.644531"/><stop stop-opacity="1" stop-color="rgb(78.004456%, 47.564697%, 91.157532%)" offset="0.648438"/><stop stop-opacity="1" stop-color="rgb(78.256226%, 47.799683%, 91.149902%)" offset="0.652344"/><stop stop-opacity="1" stop-color="rgb(78.507996%, 48.036194%, 91.143799%)" offset="0.65625"/><stop stop-opacity="1" stop-color="rgb(78.75824%, 48.271179%, 91.137695%)" offset="0.660156"/><stop stop-opacity="1" stop-color="rgb(79.01001%, 48.50769%, 91.131592%)" offset="0.664063"/><stop stop-opacity="1" stop-color="rgb(79.26178%, 48.742676%, 91.125488%)" offset="0.667969"/><stop stop-opacity="1" stop-color="rgb(79.51355%, 48.979187%, 91.119385%)" offset="0.671875"/><stop stop-opacity="1" stop-color="rgb(79.76532%, 49.214172%, 91.111755%)" offset="0.675781"/><stop stop-opacity="1" stop-color="rgb(80.01709%, 49.450684%, 91.105652%)" offset="0.679688"/><stop stop-opacity="1" stop-color="rgb(80.267334%, 49.687195%, 91.099548%)" offset="0.683594"/><stop stop-opacity="1" stop-color="rgb(80.519104%, 49.923706%, 91.093445%)" offset="0.6875"/><stop stop-opacity="1" stop-color="rgb(80.770874%, 50.158691%, 91.085815%)" offset="0.691406"/><stop stop-opacity="1" stop-color="rgb(81.022644%, 50.395203%, 91.079712%)" offset="0.695312"/><stop stop-opacity="1" stop-color="rgb(81.272888%, 50.630188%, 91.073608%)" offset="0.699219"/><stop stop-opacity="1" stop-color="rgb(81.524658%, 50.866699%, 91.067505%)" offset="0.703125"/><stop stop-opacity="1" stop-color="rgb(81.776428%, 51.101685%, 91.061401%)" offset="0.707031"/><stop stop-opacity="1" stop-color="rgb(82.028198%, 51.338196%, 91.055298%)" offset="0.710937"/><stop stop-opacity="1" stop-color="rgb(82.278442%, 51.574707%, 91.047668%)" offset="0.714844"/><stop stop-opacity="1" stop-color="rgb(82.530212%, 51.811218%, 91.041565%)" offset="0.71875"/><stop stop-opacity="1" stop-color="rgb(82.781982%, 52.046204%, 91.035461%)" offset="0.722656"/><stop stop-opacity="1" stop-color="rgb(83.033752%, 52.282715%, 91.029358%)" offset="0.726562"/><stop stop-opacity="1" stop-color="rgb(83.285522%, 52.5177%, 91.023254%)" offset="0.730469"/><stop stop-opacity="1" stop-color="rgb(83.537292%, 52.754211%, 91.017151%)" offset="0.734375"/><stop stop-opacity="1" stop-color="rgb(83.787537%, 52.989197%, 91.009521%)" offset="0.738281"/><stop stop-opacity="1" stop-color="rgb(84.039307%, 53.225708%, 91.003418%)" offset="0.742187"/><stop stop-opacity="1" stop-color="rgb(84.291077%, 53.460693%, 90.997314%)" offset="0.746094"/><stop stop-opacity="1" stop-color="rgb(84.542847%, 53.697205%, 90.991211%)" offset="0.75"/><stop stop-opacity="1" stop-color="rgb(84.793091%, 53.933716%, 90.985107%)" offset="0.753906"/><stop stop-opacity="1" stop-color="rgb(85.044861%, 54.170227%, 90.979004%)" offset="0.757812"/><stop stop-opacity="1" stop-color="rgb(85.296631%, 54.405212%, 90.971375%)" offset="0.761719"/><stop stop-opacity="1" stop-color="rgb(85.548401%, 54.641724%, 90.965271%)" offset="0.765625"/><stop stop-opacity="1" stop-color="rgb(85.800171%, 54.876709%, 90.959167%)" offset="0.769531"/><stop stop-opacity="1" stop-color="rgb(86.051941%, 55.11322%, 90.953064%)" offset="0.773438"/><stop stop-opacity="1" stop-color="rgb(86.302185%, 55.348206%, 90.94696%)" offset="0.777344"/><stop stop-opacity="1" stop-color="rgb(86.553955%, 55.584717%, 90.940857%)" offset="0.78125"/><stop stop-opacity="1" stop-color="rgb(86.805725%, 55.821228%, 90.933228%)" offset="0.785156"/><stop stop-opacity="1" stop-color="rgb(87.057495%, 56.057739%, 90.927124%)" offset="0.789062"/><stop stop-opacity="1" stop-color="rgb(87.307739%, 56.292725%, 90.921021%)" offset="0.792969"/><stop stop-opacity="1" stop-color="rgb(87.559509%, 56.529236%, 90.914917%)" offset="0.796875"/><stop stop-opacity="1" stop-color="rgb(87.811279%, 56.764221%, 90.907288%)" offset="0.800781"/><stop stop-opacity="1" stop-color="rgb(88.063049%, 57.000732%, 90.901184%)" offset="0.804688"/><stop stop-opacity="1" stop-color="rgb(88.314819%, 57.235718%, 90.895081%)" offset="0.808594"/><stop stop-opacity="1" stop-color="rgb(88.566589%, 57.472229%, 90.888977%)" offset="0.8125"/><stop stop-opacity="1" stop-color="rgb(88.816833%, 57.707214%, 90.882874%)" offset="0.816406"/><stop stop-opacity="1" stop-color="rgb(89.068604%, 57.943726%, 90.87677%)" offset="0.820312"/><stop stop-opacity="1" stop-color="rgb(89.320374%, 58.180237%, 90.869141%)" offset="0.824219"/><stop stop-opacity="1" stop-color="rgb(89.572144%, 58.416748%, 90.863037%)" offset="0.828125"/><stop stop-opacity="1" stop-color="rgb(89.822388%, 58.651733%, 90.856934%)" offset="0.832031"/><stop stop-opacity="1" stop-color="rgb(90.074158%, 58.888245%, 90.85083%)" offset="0.835938"/><stop stop-opacity="1" stop-color="rgb(90.325928%, 59.12323%, 90.844727%)" offset="0.839844"/><stop stop-opacity="1" stop-color="rgb(90.577698%, 59.359741%, 90.838623%)" offset="0.84375"/><stop stop-opacity="1" stop-color="rgb(90.829468%, 59.594727%, 90.830994%)" offset="0.847656"/><stop stop-opacity="1" stop-color="rgb(91.081238%, 59.831238%, 90.82489%)" offset="0.851563"/><stop stop-opacity="1" stop-color="rgb(91.331482%, 60.067749%, 90.818787%)" offset="0.855469"/><stop stop-opacity="1" stop-color="rgb(91.583252%, 60.30426%, 90.812683%)" offset="0.859375"/><stop stop-opacity="1" stop-color="rgb(91.835022%, 60.539246%, 90.80658%)" offset="0.863281"/><stop stop-opacity="1" stop-color="rgb(92.086792%, 60.775757%, 90.800476%)" offset="0.867188"/><stop stop-opacity="1" stop-color="rgb(92.337036%, 61.010742%, 90.792847%)" offset="0.871094"/><stop stop-opacity="1" stop-color="rgb(92.588806%, 61.247253%, 90.786743%)" offset="0.875"/><stop stop-opacity="1" stop-color="rgb(92.840576%, 61.482239%, 90.78064%)" offset="0.878906"/><stop stop-opacity="1" stop-color="rgb(93.092346%, 61.71875%, 90.774536%)" offset="0.882812"/><stop stop-opacity="1" stop-color="rgb(93.344116%, 61.953735%, 90.768433%)" offset="0.886719"/><stop stop-opacity="1" stop-color="rgb(93.595886%, 62.190247%, 90.762329%)" offset="0.890625"/><stop stop-opacity="1" stop-color="rgb(93.84613%, 62.426758%, 90.7547%)" offset="0.894531"/><stop stop-opacity="1" stop-color="rgb(94.0979%, 62.663269%, 90.748596%)" offset="0.898437"/><stop stop-opacity="1" stop-color="rgb(94.34967%, 62.898254%, 90.742493%)" offset="0.902344"/><stop stop-opacity="1" stop-color="rgb(94.60144%, 63.134766%, 90.736389%)" offset="0.90625"/><stop stop-opacity="1" stop-color="rgb(94.851685%, 63.369751%, 90.72876%)" offset="0.910156"/><stop stop-opacity="1" stop-color="rgb(95.103455%, 63.606262%, 90.722656%)" offset="0.914062"/><stop stop-opacity="1" stop-color="rgb(95.355225%, 63.841248%, 90.716553%)" offset="0.917969"/><stop stop-opacity="1" stop-color="rgb(95.606995%, 64.077759%, 90.710449%)" offset="0.921875"/><stop stop-opacity="1" stop-color="rgb(95.857239%, 64.31427%, 90.704346%)" offset="0.925781"/><stop stop-opacity="1" stop-color="rgb(96.109009%, 64.550781%, 90.698242%)" offset="0.929687"/><stop stop-opacity="1" stop-color="rgb(96.360779%, 64.785767%, 90.690613%)" offset="0.933594"/><stop stop-opacity="1" stop-color="rgb(96.612549%, 65.022278%, 90.684509%)" offset="0.9375"/><stop stop-opacity="1" stop-color="rgb(96.864319%, 65.257263%, 90.678406%)" offset="0.941406"/><stop stop-opacity="1" stop-color="rgb(97.116089%, 65.493774%, 90.672302%)" offset="0.945312"/><stop stop-opacity="1" stop-color="rgb(97.366333%, 65.72876%, 90.666199%)" offset="0.949219"/><stop stop-opacity="1" stop-color="rgb(97.618103%, 65.965271%, 90.660095%)" offset="0.953125"/><stop stop-opacity="1" stop-color="rgb(97.869873%, 66.200256%, 90.652466%)" offset="0.957031"/><stop stop-opacity="1" stop-color="rgb(98.121643%, 66.436768%, 90.646362%)" offset="0.960938"/><stop stop-opacity="1" stop-color="rgb(98.371887%, 66.673279%, 90.640259%)" offset="0.964844"/><stop stop-opacity="1" stop-color="rgb(98.623657%, 66.90979%, 90.634155%)" offset="0.96875"/><stop stop-opacity="1" stop-color="rgb(98.875427%, 67.144775%, 90.628052%)" offset="0.972656"/><stop stop-opacity="1" stop-color="rgb(99.127197%, 67.381287%, 90.621948%)" offset="0.976562"/><stop stop-opacity="1" stop-color="rgb(99.378967%, 67.616272%, 90.614319%)" offset="0.980469"/><stop stop-opacity="1" stop-color="rgb(99.630737%, 67.852783%, 90.608215%)" offset="0.984375"/><stop stop-opacity="1" stop-color="rgb(99.815369%, 68.025208%, 90.603638%)" offset="1"/></linearGradient></defs><g clip-path="url(#c1f6b99bb0)"><path fill="#ffaee7" d="M 347.527344 203.445312 L 210.140625 244.726562 C 195.371094 249.164062 179.625 249.164062 164.855469 244.726562 L 27.46875 203.445312 C 13.71875 199.3125 13.71875 179.839844 27.46875 175.707031 L 164.855469 134.425781 C 179.625 129.988281 195.371094 129.988281 210.140625 134.425781 L 347.527344 175.707031 C 361.277344 179.839844 361.277344 199.3125 347.527344 203.445312 Z M 347.527344 203.445312 " fill-opacity="1" fill-rule="nonzero"/></g><g clip-path="url(#6f1c82a7a6)"><g clip-path="url(#2db00055d4)"><path fill="url(#7cdf024578)" d="M 13.71875 67.890625 L 13.71875 187.066406 L 361.277344 187.066406 L 361.277344 67.890625 Z M 13.71875 67.890625 " fill-rule="nonzero"/></g></g><path fill="#5e17eb" d="M 347.527344 79.246094 L 210.140625 120.53125 C 195.371094 124.96875 179.625 124.96875 164.855469 120.53125 L 27.46875 79.246094 C 13.71875 75.117188 13.71875 55.644531 27.46875 51.511719 L 164.855469 10.226562 C 179.625 5.789062 195.371094 5.789062 210.140625 10.226562 L 347.527344 51.511719 C 361.277344 55.644531 361.277344 75.117188 347.527344 79.246094 Z M 347.527344 79.246094 " fill-opacity="1" fill-rule="nonzero"/><g fill="#5e17eb" fill-opacity="1"><g transform="translate(72.040863, 297.286575)"><g><path d="M 12.703125 0.296875 C 10.742188 0.296875 8.988281 -0.0507812 7.4375 -0.75 C 5.882812 -1.445312 4.664062 -2.410156 3.78125 -3.640625 C 2.90625 -4.878906 2.453125 -6.304688 2.421875 -7.921875 L 6.5625 -7.921875 C 6.707031 -6.535156 7.28125 -5.363281 8.28125 -4.40625 C 9.289062 -3.457031 10.765625 -2.984375 12.703125 -2.984375 C 14.546875 -2.984375 16 -3.441406 17.0625 -4.359375 C 18.132812 -5.285156 18.671875 -6.472656 18.671875 -7.921875 C 18.671875 -9.066406 18.359375 -9.992188 17.734375 -10.703125 C 17.109375 -11.410156 16.328125 -11.945312 15.390625 -12.3125 C 14.453125 -12.6875 13.1875 -13.085938 11.59375 -13.515625 C 9.632812 -14.023438 8.0625 -14.535156 6.875 -15.046875 C 5.695312 -15.554688 4.6875 -16.359375 3.84375 -17.453125 C 3.007812 -18.546875 2.59375 -20.015625 2.59375 -21.859375 C 2.59375 -23.484375 3.003906 -24.921875 3.828125 -26.171875 C 4.660156 -27.421875 5.820312 -28.382812 7.3125 -29.0625 C 8.800781 -29.75 10.515625 -30.09375 12.453125 -30.09375 C 15.234375 -30.09375 17.507812 -29.394531 19.28125 -28 C 21.0625 -26.613281 22.066406 -24.769531 22.296875 -22.46875 L 18.03125 -22.46875 C 17.882812 -23.601562 17.285156 -24.601562 16.234375 -25.46875 C 15.179688 -26.332031 13.789062 -26.765625 12.0625 -26.765625 C 10.445312 -26.765625 9.125 -26.34375 8.09375 -25.5 C 7.070312 -24.664062 6.5625 -23.5 6.5625 -22 C 6.5625 -20.914062 6.863281 -20.03125 7.46875 -19.34375 C 8.082031 -18.664062 8.835938 -18.148438 9.734375 -17.796875 C 10.628906 -17.441406 11.890625 -17.035156 13.515625 -16.578125 C 15.472656 -16.035156 17.046875 -15.5 18.234375 -14.96875 C 19.429688 -14.445312 20.457031 -13.640625 21.3125 -12.546875 C 22.164062 -11.453125 22.59375 -9.96875 22.59375 -8.09375 C 22.59375 -6.644531 22.207031 -5.28125 21.4375 -4 C 20.675781 -2.726562 19.539062 -1.691406 18.03125 -0.890625 C 16.519531 -0.0976562 14.742188 0.296875 12.703125 0.296875 Z M 12.703125 0.296875 "/></g></g></g><g fill="#5e17eb" fill-opacity="1"><g transform="translate(97.061092, 297.286575)"><g><path d="M 24.59375 -12.578125 C 24.59375 -11.835938 24.550781 -11.054688 24.46875 -10.234375 L 5.796875 -10.234375 C 5.941406 -7.929688 6.726562 -6.132812 8.15625 -4.84375 C 9.59375 -3.550781 11.335938 -2.90625 13.390625 -2.90625 C 15.066406 -2.90625 16.460938 -3.296875 17.578125 -4.078125 C 18.703125 -4.859375 19.492188 -5.898438 19.953125 -7.203125 L 24.125 -7.203125 C 23.5 -4.960938 22.25 -3.132812 20.375 -1.71875 C 18.5 -0.3125 16.171875 0.390625 13.390625 0.390625 C 11.171875 0.390625 9.1875 -0.101562 7.4375 -1.09375 C 5.6875 -2.09375 4.3125 -3.507812 3.3125 -5.34375 C 2.320312 -7.175781 1.828125 -9.300781 1.828125 -11.71875 C 1.828125 -14.132812 2.3125 -16.25 3.28125 -18.0625 C 4.25 -19.882812 5.601562 -21.285156 7.34375 -22.265625 C 9.09375 -23.242188 11.109375 -23.734375 13.390625 -23.734375 C 15.597656 -23.734375 17.554688 -23.25 19.265625 -22.28125 C 20.972656 -21.320312 22.285156 -19.992188 23.203125 -18.296875 C 24.128906 -16.609375 24.59375 -14.703125 24.59375 -12.578125 Z M 20.59375 -13.390625 C 20.59375 -14.859375 20.265625 -16.125 19.609375 -17.1875 C 18.953125 -18.257812 18.0625 -19.070312 16.9375 -19.625 C 15.820312 -20.175781 14.582031 -20.453125 13.21875 -20.453125 C 11.25 -20.453125 9.578125 -19.828125 8.203125 -18.578125 C 6.828125 -17.328125 6.039062 -15.597656 5.84375 -13.390625 Z M 20.59375 -13.390625 "/></g></g></g><g fill="#5e17eb" fill-opacity="1"><g transform="translate(123.48791, 297.286575)"><g><path d="M 5.28125 -27.15625 C 4.539062 -27.15625 3.914062 -27.410156 3.40625 -27.921875 C 2.894531 -28.429688 2.640625 -29.054688 2.640625 -29.796875 C 2.640625 -30.535156 2.894531 -31.160156 3.40625 -31.671875 C 3.914062 -32.179688 4.539062 -32.4375 5.28125 -32.4375 C 5.988281 -32.4375 6.59375 -32.179688 7.09375 -31.671875 C 7.59375 -31.160156 7.84375 -30.535156 7.84375 -29.796875 C 7.84375 -29.054688 7.59375 -28.429688 7.09375 -27.921875 C 6.59375 -27.410156 5.988281 -27.15625 5.28125 -27.15625 Z M 7.15625 -23.359375 L 7.15625 0 L 3.28125 0 L 3.28125 -23.359375 Z M 7.15625 -23.359375 "/></g></g></g><g fill="#5e17eb" fill-opacity="1"><g transform="translate(133.97339, 297.286575)"><g><path d="M 1.828125 -11.765625 C 1.828125 -14.148438 2.3125 -16.242188 3.28125 -18.046875 C 4.25 -19.859375 5.578125 -21.257812 7.265625 -22.25 C 8.953125 -23.238281 10.847656 -23.734375 12.953125 -23.734375 C 14.773438 -23.734375 16.46875 -23.316406 18.03125 -22.484375 C 19.59375 -21.648438 20.785156 -20.550781 21.609375 -19.1875 L 21.609375 -31.546875 L 25.53125 -31.546875 L 25.53125 0 L 21.609375 0 L 21.609375 -4.390625 C 20.835938 -2.992188 19.695312 -1.847656 18.1875 -0.953125 C 16.6875 -0.0546875 14.929688 0.390625 12.921875 0.390625 C 10.835938 0.390625 8.953125 -0.117188 7.265625 -1.140625 C 5.578125 -2.171875 4.25 -3.609375 3.28125 -5.453125 C 2.3125 -7.304688 1.828125 -9.410156 1.828125 -11.765625 Z M 21.609375 -11.71875 C 21.609375 -13.476562 21.253906 -15.007812 20.546875 -16.3125 C 19.835938 -17.625 18.878906 -18.628906 17.671875 -19.328125 C 16.460938 -20.023438 15.132812 -20.375 13.6875 -20.375 C 12.238281 -20.375 10.914062 -20.03125 9.71875 -19.34375 C 8.519531 -18.664062 7.566406 -17.671875 6.859375 -16.359375 C 6.148438 -15.054688 5.796875 -13.523438 5.796875 -11.765625 C 5.796875 -9.972656 6.148438 -8.414062 6.859375 -7.09375 C 7.566406 -5.769531 8.519531 -4.757812 9.71875 -4.0625 C 10.914062 -3.375 12.238281 -3.03125 13.6875 -3.03125 C 15.132812 -3.03125 16.460938 -3.375 17.671875 -4.0625 C 18.878906 -4.757812 19.835938 -5.769531 20.546875 -7.09375 C 21.253906 -8.414062 21.609375 -9.957031 21.609375 -11.71875 Z M 21.609375 -11.71875 "/></g></g></g><g fill="#5e17eb" fill-opacity="1"><g transform="translate(162.787147, 297.286575)"><g><path d="M 13.46875 0.390625 C 11.28125 0.390625 9.296875 -0.101562 7.515625 -1.09375 C 5.742188 -2.09375 4.351562 -3.507812 3.34375 -5.34375 C 2.332031 -7.175781 1.828125 -9.300781 1.828125 -11.71875 C 1.828125 -14.101562 2.34375 -16.210938 3.375 -18.046875 C 4.414062 -19.878906 5.832031 -21.285156 7.625 -22.265625 C 9.414062 -23.242188 11.421875 -23.734375 13.640625 -23.734375 C 15.859375 -23.734375 17.859375 -23.242188 19.640625 -22.265625 C 21.429688 -21.285156 22.847656 -19.882812 23.890625 -18.0625 C 24.929688 -16.25 25.453125 -14.132812 25.453125 -11.71875 C 25.453125 -9.300781 24.914062 -7.175781 23.84375 -5.34375 C 22.78125 -3.507812 21.335938 -2.09375 19.515625 -1.09375 C 17.703125 -0.101562 15.6875 0.390625 13.46875 0.390625 Z M 13.46875 -3.03125 C 14.863281 -3.03125 16.171875 -3.351562 17.390625 -4 C 18.609375 -4.65625 19.59375 -5.632812 20.34375 -6.9375 C 21.101562 -8.25 21.484375 -9.84375 21.484375 -11.71875 C 21.484375 -13.59375 21.113281 -15.179688 20.375 -16.484375 C 19.632812 -17.796875 18.664062 -18.769531 17.46875 -19.40625 C 16.28125 -20.050781 14.988281 -20.375 13.59375 -20.375 C 12.175781 -20.375 10.875 -20.050781 9.6875 -19.40625 C 8.507812 -18.769531 7.566406 -17.796875 6.859375 -16.484375 C 6.148438 -15.179688 5.796875 -13.59375 5.796875 -11.71875 C 5.796875 -9.8125 6.144531 -8.203125 6.84375 -6.890625 C 7.539062 -5.585938 8.46875 -4.617188 9.625 -3.984375 C 10.789062 -3.347656 12.070312 -3.03125 13.46875 -3.03125 Z M 13.46875 -3.03125 "/></g></g></g><g fill="#5e17eb" fill-opacity="1"><g transform="translate(190.06644, 297.286575)"><g><path d="M 1.828125 -11.71875 C 1.828125 -14.132812 2.3125 -16.242188 3.28125 -18.046875 C 4.25 -19.859375 5.59375 -21.257812 7.3125 -22.25 C 9.03125 -23.238281 11 -23.734375 13.21875 -23.734375 C 16.082031 -23.734375 18.445312 -23.035156 20.3125 -21.640625 C 22.175781 -20.253906 23.40625 -18.328125 24 -15.859375 L 19.828125 -15.859375 C 19.421875 -17.273438 18.640625 -18.394531 17.484375 -19.21875 C 16.335938 -20.039062 14.914062 -20.453125 13.21875 -20.453125 C 11 -20.453125 9.207031 -19.691406 7.84375 -18.171875 C 6.476562 -16.660156 5.796875 -14.507812 5.796875 -11.71875 C 5.796875 -8.90625 6.476562 -6.734375 7.84375 -5.203125 C 9.207031 -3.671875 11 -2.90625 13.21875 -2.90625 C 14.914062 -2.90625 16.332031 -3.300781 17.46875 -4.09375 C 18.613281 -4.882812 19.398438 -6.019531 19.828125 -7.5 L 24 -7.5 C 23.375 -5.113281 22.125 -3.203125 20.25 -1.765625 C 18.375 -0.328125 16.03125 0.390625 13.21875 0.390625 C 11 0.390625 9.03125 -0.101562 7.3125 -1.09375 C 5.59375 -2.09375 4.25 -3.503906 3.28125 -5.328125 C 2.3125 -7.148438 1.828125 -9.28125 1.828125 -11.71875 Z M 1.828125 -11.71875 "/></g></g></g><g fill="#5e17eb" fill-opacity="1"><g transform="translate(215.939145, 297.286575)"><g><path d="M 4.515625 0.25 C 3.773438 0.25 3.148438 -0.00390625 2.640625 -0.515625 C 2.128906 -1.023438 1.875 -1.648438 1.875 -2.390625 C 1.875 -3.128906 2.128906 -3.753906 2.640625 -4.265625 C 3.148438 -4.773438 3.773438 -5.03125 4.515625 -5.03125 C 5.222656 -5.03125 5.828125 -4.773438 6.328125 -4.265625 C 6.828125 -3.753906 7.078125 -3.128906 7.078125 -2.390625 C 7.078125 -1.648438 6.828125 -1.023438 6.328125 -0.515625 C 5.828125 -0.00390625 5.222656 0.25 4.515625 0.25 Z M 4.515625 0.25 "/></g></g></g><g fill="#5e17eb" fill-opacity="1"><g transform="translate(224.89016, 297.286575)"><g><path d="M 2.5625 -23.0625 C 2.757812 -25.675781 3.765625 -27.722656 5.578125 -29.203125 C 7.398438 -30.679688 9.757812 -31.421875 12.65625 -31.421875 C 14.59375 -31.421875 16.265625 -31.070312 17.671875 -30.375 C 19.078125 -29.675781 20.140625 -28.726562 20.859375 -27.53125 C 21.585938 -26.34375 21.953125 -24.992188 21.953125 -23.484375 C 21.953125 -21.722656 21.445312 -20.203125 20.4375 -18.921875 C 19.425781 -17.640625 18.113281 -16.816406 16.5 -16.453125 L 16.5 -16.234375 C 18.34375 -15.785156 19.800781 -14.890625 20.875 -13.546875 C 21.957031 -12.210938 22.5 -10.46875 22.5 -8.3125 C 22.5 -6.6875 22.128906 -5.226562 21.390625 -3.9375 C 20.660156 -2.644531 19.554688 -1.628906 18.078125 -0.890625 C 16.597656 -0.148438 14.820312 0.21875 12.75 0.21875 C 9.738281 0.21875 7.265625 -0.566406 5.328125 -2.140625 C 3.390625 -3.722656 2.3125 -5.960938 2.09375 -8.859375 L 5.84375 -8.859375 C 6.039062 -7.160156 6.734375 -5.769531 7.921875 -4.6875 C 9.117188 -3.601562 10.710938 -3.0625 12.703125 -3.0625 C 14.691406 -3.0625 16.203125 -3.582031 17.234375 -4.625 C 18.273438 -5.664062 18.796875 -7.007812 18.796875 -8.65625 C 18.796875 -10.78125 18.082031 -12.3125 16.65625 -13.25 C 15.238281 -14.1875 13.097656 -14.65625 10.234375 -14.65625 L 9.25 -14.65625 L 9.25 -17.90625 L 10.265625 -17.90625 C 12.878906 -17.925781 14.851562 -18.351562 16.1875 -19.1875 C 17.53125 -20.03125 18.203125 -21.335938 18.203125 -23.109375 C 18.203125 -24.609375 17.710938 -25.8125 16.734375 -26.71875 C 15.753906 -27.632812 14.351562 -28.09375 12.53125 -28.09375 C 10.769531 -28.09375 9.347656 -27.632812 8.265625 -26.71875 C 7.191406 -25.8125 6.550781 -24.59375 6.34375 -23.0625 Z M 2.5625 -23.0625 "/></g></g></g><g fill="#5e17eb" fill-opacity="1"><g transform="translate(249.995646, 297.286575)"><g><path d="M 19.828125 -23.484375 C 19.203125 -26.640625 17.253906 -28.21875 13.984375 -28.21875 C 11.453125 -28.21875 9.5625 -27.242188 8.3125 -25.296875 C 7.0625 -23.347656 6.453125 -20.144531 6.484375 -15.6875 C 7.128906 -17.164062 8.210938 -18.320312 9.734375 -19.15625 C 11.253906 -20 12.953125 -20.421875 14.828125 -20.421875 C 17.753906 -20.421875 20.09375 -19.507812 21.84375 -17.6875 C 23.59375 -15.875 24.46875 -13.359375 24.46875 -10.140625 C 24.46875 -8.210938 24.085938 -6.476562 23.328125 -4.9375 C 22.578125 -3.40625 21.441406 -2.1875 19.921875 -1.28125 C 18.398438 -0.375 16.5625 0.078125 14.40625 0.078125 C 11.476562 0.078125 9.191406 -0.570312 7.546875 -1.875 C 5.898438 -3.1875 4.75 -4.988281 4.09375 -7.28125 C 3.4375 -9.582031 3.109375 -12.425781 3.109375 -15.8125 C 3.109375 -26.238281 6.75 -31.453125 14.03125 -31.453125 C 16.8125 -31.453125 18.992188 -30.695312 20.578125 -29.1875 C 22.171875 -27.6875 23.113281 -25.785156 23.40625 -23.484375 Z M 14.03125 -17.140625 C 12.800781 -17.140625 11.644531 -16.890625 10.5625 -16.390625 C 9.488281 -15.890625 8.617188 -15.132812 7.953125 -14.125 C 7.285156 -13.113281 6.953125 -11.882812 6.953125 -10.4375 C 6.953125 -8.28125 7.578125 -6.523438 8.828125 -5.171875 C 10.078125 -3.828125 11.863281 -3.15625 14.1875 -3.15625 C 16.175781 -3.15625 17.757812 -3.769531 18.9375 -5 C 20.125 -6.238281 20.71875 -7.910156 20.71875 -10.015625 C 20.71875 -12.234375 20.148438 -13.972656 19.015625 -15.234375 C 17.878906 -16.503906 16.21875 -17.140625 14.03125 -17.140625 Z M 14.03125 -17.140625 "/></g></g></g><g fill="#5e17eb" fill-opacity="1"><g transform="translate(277.061815, 297.286575)"><g><path d="M 2.640625 -15.734375 C 2.640625 -20.617188 3.4375 -24.429688 5.03125 -27.171875 C 6.625 -29.910156 9.410156 -31.28125 13.390625 -31.28125 C 17.335938 -31.28125 20.101562 -29.910156 21.6875 -27.171875 C 23.28125 -24.429688 24.078125 -20.617188 24.078125 -15.734375 C 24.078125 -10.753906 23.28125 -6.882812 21.6875 -4.125 C 20.101562 -1.375 17.335938 0 13.390625 0 C 9.410156 0 6.625 -1.375 5.03125 -4.125 C 3.4375 -6.882812 2.640625 -10.753906 2.640625 -15.734375 Z M 20.25 -15.734375 C 20.25 -18.203125 20.082031 -20.296875 19.75 -22.015625 C 19.425781 -23.734375 18.757812 -25.117188 17.75 -26.171875 C 16.738281 -27.222656 15.285156 -27.75 13.390625 -27.75 C 11.453125 -27.75 9.976562 -27.222656 8.96875 -26.171875 C 7.957031 -25.117188 7.289062 -23.734375 6.96875 -22.015625 C 6.644531 -20.296875 6.484375 -18.203125 6.484375 -15.734375 C 6.484375 -13.171875 6.644531 -11.019531 6.96875 -9.28125 C 7.289062 -7.550781 7.957031 -6.160156 8.96875 -5.109375 C 9.976562 -4.054688 11.453125 -3.53125 13.390625 -3.53125 C 15.285156 -3.53125 16.738281 -4.054688 17.75 -5.109375 C 18.757812 -6.160156 19.425781 -7.550781 19.75 -9.28125 C 20.082031 -11.019531 20.25 -13.171875 20.25 -15.734375 Z M 20.25 -15.734375 "/></g></g></g></svg>